<svg width="138" height="37" viewBox="0 0 138 37" fill="none" xmlns="http://www.w3.org/2000/svg">
<path d="M13.5894 25.0706L12.1299 21.4486H4.66504L3.22949 25.0706H0.310547L7.05762 8.39014H9.64162L16.5562 25.0706H13.5894ZM8.37355 11.9645L5.62208 18.9942H11.1729L8.37355 11.9645ZM19.0218 25.0706V8.39014H21.7733V25.0706H19.0218ZM36.1804 12.2028H37.927V23.3788C37.927 24.745 37.6637 25.9206 37.1374 26.9054C36.627 27.9063 35.8853 28.6688 34.9123 29.1931C33.9393 29.7332 32.7909 30.0033 31.467 30.0033C29.8241 30.0033 28.4444 29.5982 27.3278 28.788C26.2113 27.9937 25.4856 26.8817 25.1506 25.4519H27.8064C28.0456 26.1509 28.5002 26.691 29.1701 27.0723C29.856 27.4536 30.6136 27.6442 31.443 27.6442C32.5915 27.6442 33.5247 27.2947 34.2423 26.5957C34.9601 25.8967 35.3191 24.9435 35.3191 23.7361V23.1642C34.1228 24.181 32.6952 24.6893 31.0363 24.6893C29.2499 24.6893 27.7345 24.0778 26.4905 22.8545C25.2623 21.6154 24.6481 20.0983 24.6481 18.3031C24.6481 16.5079 25.2623 14.9908 26.4905 13.7517C27.7345 12.5126 29.2499 11.8931 31.0363 11.8931C32.9345 11.8931 34.5056 12.5523 35.7497 13.8709L36.1804 12.2028ZM31.3473 22.2349C31.9056 22.2349 32.432 22.1396 32.9265 21.949C33.4209 21.7425 33.8436 21.4724 34.1945 21.1388C34.5454 20.7893 34.8166 20.3683 35.008 19.8758C35.2153 19.3834 35.3191 18.8591 35.3191 18.3031C35.3191 17.1593 34.9442 16.2141 34.1945 15.4674C33.4449 14.7208 32.4958 14.3475 31.3473 14.3475C30.199 14.3475 29.2419 14.7287 28.4763 15.4913C27.7266 16.238 27.3517 17.1752 27.3517 18.3031C27.3517 19.431 27.7266 20.3683 28.4763 21.115C29.2419 21.8617 30.199 22.2349 31.3473 22.2349ZM53.9776 18.6606C53.9776 18.8989 53.9616 19.1927 53.9297 19.5422H43.4503C43.6098 20.5749 44.0404 21.393 44.7423 21.9966C45.4601 22.6003 46.3453 22.9022 47.398 22.9022C47.9085 22.9022 48.387 22.8307 48.8336 22.6877C49.2802 22.5289 49.671 22.3144 50.0059 22.0443C50.3569 21.7583 50.644 21.4168 50.8673 21.0197H53.6666C53.1562 22.3859 52.3427 23.4582 51.2261 24.2366C50.1097 24.9992 48.8336 25.3804 47.398 25.3804C45.4999 25.3804 43.9128 24.737 42.6368 23.4502C41.3767 22.1635 40.7467 20.559 40.7467 18.6367C40.7467 16.7144 41.3767 15.11 42.6368 13.8232C43.9128 12.5364 45.4999 11.8931 47.398 11.8931C48.69 11.8931 49.8385 12.2028 50.8433 12.8224C51.8482 13.4261 52.6219 14.2442 53.1642 15.2768C53.7064 16.2935 53.9776 17.4214 53.9776 18.6606ZM47.398 14.2759C46.4091 14.2759 45.5637 14.554 44.8619 15.11C44.176 15.666 43.7214 16.4285 43.4981 17.3976H51.3218C51.1623 16.7462 50.8992 16.1903 50.5323 15.7296C50.1654 15.253 49.7109 14.8955 49.1686 14.6572C48.6422 14.403 48.052 14.2759 47.398 14.2759ZM63.6403 11.9169C65.1396 11.9169 66.3279 12.4173 67.2052 13.4181C68.0984 14.4189 68.5451 15.7216 68.5451 17.3261V25.0706H65.8893V17.8504C65.8893 16.6907 65.6341 15.809 65.1237 15.2053C64.6292 14.5858 63.8955 14.2759 62.9225 14.2759C61.9177 14.2759 61.0882 14.6413 60.4343 15.3721C59.7803 16.1029 59.4532 17.0402 59.4532 18.184V25.0706H56.7975V12.2028H58.6398L59.1661 13.99C59.6606 13.3386 60.2907 12.8304 61.0563 12.465C61.8379 12.0996 62.6992 11.9169 63.6403 11.9169ZM77.7977 22.6639H79.2571V25.0706H77.2952C76.3542 25.0706 75.5407 24.888 74.8548 24.5226C74.1689 24.1572 73.6425 23.6329 73.2757 22.9498C72.9088 22.2508 72.7254 21.4327 72.7254 20.4954V14.4666H70.4045V13.9662L74.9026 9.20033H75.3572V12.2028H79.1854V14.4666H75.3812V20.2809C75.3812 21.0434 75.5885 21.6312 76.0032 22.0443C76.418 22.4573 77.0161 22.6639 77.7977 22.6639Z" fill="white"/>
<path d="M92.8495 36.9063H76.383C75.6 36.9063 75.2109 35.9605 75.769 35.4133L92.2894 19.2126C92.6358 18.873 92.6379 18.3173 92.2942 17.9749L75.7408 1.48826C75.1893 0.939055 75.5798 0 76.3597 0H93.8707C94.1028 0 94.3255 0.0918503 94.4897 0.255345L106.086 11.8046C106.25 11.9681 106.472 12.06 106.705 12.06H119.034C119.518 12.06 119.91 12.4502 119.91 12.9318V22.9574C119.91 23.4389 119.518 23.8292 119.034 23.8292H106.705C106.472 23.8292 106.25 23.9212 106.086 24.0846L93.4684 36.651C93.3043 36.8145 93.0817 36.9063 92.8495 36.9063Z" fill="url(#paint0_linear_130_1124)"/>
<path d="M104.604 0.247785L92.8058 6.50384C92.1794 6.83599 92.1894 7.73346 92.8229 8.05176L100.616 11.9667C100.738 12.0282 100.873 12.0602 101.01 12.0602H115.312C115.457 12.0602 115.597 12.025 115.724 11.9579L134.904 1.78684C135.709 1.36015 135.404 0.145508 134.494 0.145508H105.014C104.871 0.145508 104.73 0.180631 104.604 0.247785Z" fill="url(#paint1_linear_130_1124)"/>
<path d="M104.604 35.4964L92.8058 29.2403C92.1794 28.9082 92.1894 28.0107 92.8229 27.6925L100.616 23.7775C100.738 23.7161 100.873 23.6841 101.01 23.6841H115.312C115.457 23.6841 115.597 23.7191 115.724 23.7864L134.904 33.9574C135.709 34.3841 135.404 35.5987 134.494 35.5987H105.014C104.871 35.5987 104.73 35.5635 104.604 35.4964Z" fill="url(#paint2_linear_130_1124)"/>
<defs>
<linearGradient id="paint0_linear_130_1124" x1="84.8963" y1="19.9062" x2="118.013" y2="20.3456" gradientUnits="userSpaceOnUse">
<stop stop-color="white"/>
<stop offset="0.619792" stop-color="white" stop-opacity="0.46"/>
<stop offset="1" stop-color="white" stop-opacity="0"/>
</linearGradient>
<linearGradient id="paint1_linear_130_1124" x1="130.261" y1="0.807434" x2="108.491" y2="22.5416" gradientUnits="userSpaceOnUse">
<stop stop-color="white"/>
<stop offset="1" stop-color="white" stop-opacity="0"/>
</linearGradient>
<linearGradient id="paint2_linear_130_1124" x1="130.261" y1="34.9368" x2="108.491" y2="13.2026" gradientUnits="userSpaceOnUse">
<stop stop-color="white"/>
<stop offset="1" stop-color="white" stop-opacity="0"/>
</linearGradient>
</defs>
</svg>
