<svg width="35" height="35" viewBox="0 0 35 35" fill="none" xmlns="http://www.w3.org/2000/svg">
<path d="M17.5007 1.45825C13.776 1.47008 10.1698 2.7683 7.29232 5.13325V4.37492C7.29232 3.98814 7.13867 3.61721 6.86518 3.34372C6.59169 3.07023 6.22076 2.91659 5.83398 2.91659C5.44721 2.91659 5.07628 3.07023 4.80279 3.34372C4.5293 3.61721 4.37565 3.98814 4.37565 4.37492V8.852C4.36736 8.94418 4.36736 9.03691 4.37565 9.12909C4.39823 9.21864 4.42748 9.30639 4.46315 9.39158C4.50815 9.47486 4.56193 9.55308 4.62357 9.62492C4.62357 9.62492 4.62357 9.74158 4.72565 9.78533H4.97357L5.23607 9.91658H5.51315L5.83398 10.2083H10.209C10.5958 10.2083 10.9667 10.0546 11.2402 9.78112C11.5137 9.50762 11.6673 9.13669 11.6673 8.74992C11.6673 8.36314 11.5137 7.99221 11.2402 7.71872C10.9667 7.44523 10.5958 7.29158 10.209 7.29158H9.27565C11.5952 5.42631 14.4799 4.40485 17.4564 4.39482C20.4329 4.38478 23.3244 5.38677 25.6565 7.23636C27.9886 9.08596 29.6227 11.6733 30.2908 14.5739C30.9588 17.4744 30.6212 20.5159 29.3331 23.1993C28.0451 25.8827 25.8832 28.0486 23.2022 29.3416C20.5212 30.6347 17.4804 30.978 14.5786 30.3153C11.6768 29.6527 9.08638 28.0233 7.23245 25.6947C5.37852 23.3661 4.37115 20.4764 4.37565 17.4999C4.37565 17.1131 4.22201 16.7422 3.94851 16.4687C3.67502 16.1952 3.30409 16.0416 2.91732 16.0416C2.53054 16.0416 2.15961 16.1952 1.88612 16.4687C1.61263 16.7422 1.45898 17.1131 1.45898 17.4999C1.45898 20.6727 2.39981 23.7742 4.16249 26.4122C5.92517 29.0502 8.43054 31.1063 11.3618 32.3205C14.293 33.5346 17.5184 33.8523 20.6302 33.2333C23.742 32.6144 26.6004 31.0866 28.8438 28.8431C31.0873 26.5996 32.6151 23.7413 33.2341 20.6295C33.8531 17.5177 33.5354 14.2923 32.3212 11.361C31.1071 8.42981 29.051 5.92444 26.4129 4.16176C23.7749 2.39908 20.6734 1.45825 17.5007 1.45825Z" fill="#F45500"/>
<path d="M17.5007 18.9584C17.8874 18.9584 18.2584 18.8048 18.5318 18.5313C18.8053 18.2578 18.959 17.8869 18.959 17.5001V8.75008C18.959 8.36331 18.8053 7.99237 18.5318 7.71888C18.2584 7.44539 17.8874 7.29175 17.5007 7.29175C17.1139 7.29175 16.7429 7.44539 16.4695 7.71888C16.196 7.99237 16.0423 8.36331 16.0423 8.75008V16.0417H11.6673C11.2805 16.0417 10.9096 16.1954 10.6361 16.4689C10.3626 16.7424 10.209 17.1133 10.209 17.5001C10.209 17.8869 10.3626 18.2578 10.6361 18.5313C10.9096 18.8048 11.2805 18.9584 11.6673 18.9584H17.5007Z" fill="#F45500"/>
</svg>
