<svg width="35" height="35" viewBox="0 0 35 35" fill="none" xmlns="http://www.w3.org/2000/svg">
<path d="M17.5007 4.375C9.72773 4.375 1.45898 6.92708 1.45898 11.6667C1.48922 12.7577 1.92614 13.7979 2.68398 14.5833C1.92614 15.3687 1.48922 16.409 1.45898 17.5C1.48528 18.589 1.91689 19.629 2.6694 20.4167C1.91689 21.2043 1.48528 22.2443 1.45898 23.3333C1.45898 28.0729 9.72773 30.625 17.5007 30.625C25.2736 30.625 33.5423 28.0729 33.5423 23.3333C33.5121 22.2423 33.0752 21.2021 32.3173 20.4167C33.0752 19.6313 33.5121 18.591 33.5423 17.5C33.5121 16.409 33.0752 15.3687 32.3173 14.5833C33.0752 13.7979 33.5121 12.7577 33.5423 11.6667C33.5423 6.92708 25.2736 4.375 17.5007 4.375ZM17.5007 27.7083C9.4944 27.7083 4.37565 25.1125 4.37565 23.3333C4.43176 22.8846 4.66227 22.476 5.01732 22.1958C8.91235 24.0428 13.1922 24.9328 17.5007 24.7917C21.8092 24.9345 26.0895 24.0445 29.984 22.1958C30.339 22.476 30.5695 22.8846 30.6256 23.3333C30.6257 25.1125 25.5069 27.7083 17.5007 27.7083ZM29.284 19.2208C26.9215 20.8542 22.4007 21.875 17.5007 21.875C12.6007 21.875 8.07982 20.8542 5.71732 19.2208C5.2069 18.8708 4.37565 18.2 4.37565 17.5C4.43827 17.0494 4.66715 16.6384 5.01732 16.3479C8.91987 18.1738 13.1935 19.0675 17.5007 18.9583C21.8078 19.0675 26.0814 18.1738 29.984 16.3479C30.3341 16.6384 30.563 17.0494 30.6256 17.5C30.6256 18.2 29.7944 18.8708 29.284 19.2208ZM29.3861 13.3875L29.2548 13.4896C27.2277 14.7875 23.0569 16.0417 17.5007 16.0417C11.9444 16.0417 7.78815 14.8021 5.83398 13.4313L5.68815 13.3292C4.81315 12.7604 4.37565 12.1771 4.37565 11.6667C4.37565 9.8875 9.4944 7.29167 17.5007 7.29167C25.5069 7.29167 30.6256 9.8875 30.6256 11.6667C30.6256 12.1771 30.1881 12.7604 29.3861 13.3292V13.3875Z" fill="#F45500"/>
</svg>
