<svg width="40" height="40" viewBox="0 0 40 40" fill="none" xmlns="http://www.w3.org/2000/svg">
<g clip-path="url(#clip0_130_1034)">
<path d="M20 10.4849V6.24243" stroke="white" stroke-miterlimit="10" stroke-linecap="round" stroke-linejoin="round"/>
<path d="M19.9995 5.87882C20.8028 5.87882 21.454 5.2276 21.454 4.42427C21.454 3.62095 20.8028 2.96973 19.9995 2.96973C19.1961 2.96973 18.5449 3.62095 18.5449 4.42427C18.5449 5.2276 19.1961 5.87882 19.9995 5.87882Z" stroke="white" stroke-miterlimit="10" stroke-linecap="round" stroke-linejoin="round"/>
<path d="M27.697 4.12125C28.5003 4.12125 29.1515 3.47003 29.1515 2.6667C29.1515 1.86338 28.5003 1.21216 27.697 1.21216C26.8936 1.21216 26.2424 1.86338 26.2424 2.6667C26.2424 3.47003 26.8936 4.12125 27.697 4.12125Z" stroke="white" stroke-miterlimit="10" stroke-linecap="round" stroke-linejoin="round"/>
<path d="M24.1212 10.4848V9.63632C24.1212 8.66662 24.9091 7.87874 25.8788 7.87874C26.8485 7.87874 27.6364 7.09086 27.6364 6.12116V4.42419" stroke="white" stroke-miterlimit="10" stroke-linecap="round" stroke-linejoin="round"/>
<path d="M12.3022 4.12125C13.1055 4.12125 13.7567 3.47003 13.7567 2.6667C13.7567 1.86338 13.1055 1.21216 12.3022 1.21216C11.4989 1.21216 10.8477 1.86338 10.8477 2.6667C10.8477 3.47003 11.4989 4.12125 12.3022 4.12125Z" stroke="white" stroke-miterlimit="10" stroke-linecap="round" stroke-linejoin="round"/>
<path d="M15.8782 10.4849V9.63644C15.8782 8.66674 15.0903 7.87886 14.1206 7.87886C13.1509 7.87886 12.363 7.09098 12.363 6.12129V4.42432M27.3933 29.5152H12.6661C11.5146 29.5152 10.6055 28.6061 10.6055 27.4546V12.6667C10.6055 11.5152 11.5146 10.6061 12.6661 10.6061H27.454C28.6055 10.6061 29.5146 11.5152 29.5146 12.6667V27.4546C29.454 28.6061 28.5449 29.5152 27.3933 29.5152Z" stroke="white" stroke-miterlimit="10" stroke-linecap="round" stroke-linejoin="round"/>
<path d="M17.8788 9.03027V10.4848" stroke="white" stroke-miterlimit="10" stroke-linecap="round" stroke-linejoin="round"/>
<path d="M22.1212 9.03027V10.4848" stroke="white" stroke-miterlimit="10" stroke-linecap="round" stroke-linejoin="round"/>
<path d="M20 29.5151V33.7576" stroke="white" stroke-miterlimit="10" stroke-linecap="round" stroke-linejoin="round"/>
<path d="M19.9995 37.0302C20.8028 37.0302 21.454 36.379 21.454 35.5756C21.454 34.7723 20.8028 34.1211 19.9995 34.1211C19.1961 34.1211 18.5449 34.7723 18.5449 35.5756C18.5449 36.379 19.1961 37.0302 19.9995 37.0302Z" stroke="white" stroke-miterlimit="10" stroke-linecap="round" stroke-linejoin="round"/>
<path d="M12.3022 38.788C13.1055 38.788 13.7567 38.1368 13.7567 37.3335C13.7567 36.5301 13.1055 35.8789 12.3022 35.8789C11.4989 35.8789 10.8477 36.5301 10.8477 37.3335C10.8477 38.1368 11.4989 38.788 12.3022 38.788Z" stroke="white" stroke-miterlimit="10" stroke-linecap="round" stroke-linejoin="round"/>
<path d="M15.8784 29.5151V30.3636C15.8784 31.3333 15.0906 32.1212 14.1209 32.1212C13.1512 32.1212 12.3633 32.9091 12.3633 33.8788V35.4545" stroke="white" stroke-miterlimit="10" stroke-linecap="round" stroke-linejoin="round"/>
<path d="M27.697 38.7879C28.5003 38.7879 29.1515 38.1367 29.1515 37.3333C29.1515 36.53 28.5003 35.8788 27.697 35.8788C26.8936 35.8788 26.2424 36.53 26.2424 37.3333C26.2424 38.1367 26.8936 38.7879 27.697 38.7879Z" stroke="white" stroke-miterlimit="10" stroke-linecap="round" stroke-linejoin="round"/>
<path d="M24.1212 29.5151V30.3636C24.1212 31.3333 24.9091 32.1212 25.8788 32.1212C26.8485 32.1212 27.6364 32.9091 27.6364 33.8788V35.4545" stroke="white" stroke-miterlimit="10" stroke-linecap="round" stroke-linejoin="round"/>
<path d="M22.1212 30.9697V29.5151" stroke="white" stroke-miterlimit="10" stroke-linecap="round" stroke-linejoin="round"/>
<path d="M17.8788 30.9697V29.5151" stroke="white" stroke-miterlimit="10" stroke-linecap="round" stroke-linejoin="round"/>
<path d="M10.4848 20H6.24242" stroke="white" stroke-miterlimit="10" stroke-linecap="round" stroke-linejoin="round"/>
<path d="M4.4233 21.4545C5.22662 21.4545 5.87784 20.8033 5.87784 20C5.87784 19.1966 5.22662 18.5454 4.4233 18.5454C3.61997 18.5454 2.96875 19.1966 2.96875 20C2.96875 20.8033 3.61997 21.4545 4.4233 21.4545Z" stroke="white" stroke-miterlimit="10" stroke-linecap="round" stroke-linejoin="round"/>
<path d="M2.66744 13.7575C3.47076 13.7575 4.12198 13.1063 4.12198 12.3029C4.12198 11.4996 3.47076 10.8484 2.66744 10.8484C1.86411 10.8484 1.21289 11.4996 1.21289 12.3029C1.21289 13.1063 1.86411 13.7575 2.66744 13.7575Z" stroke="white" stroke-miterlimit="10" stroke-linecap="round" stroke-linejoin="round"/>
<path d="M10.4844 15.8787H9.63595C8.66625 15.8787 7.87837 15.0908 7.87837 14.1211C7.87837 13.1514 7.0905 12.3635 6.1208 12.3635H4.42383" stroke="white" stroke-miterlimit="10" stroke-linecap="round" stroke-linejoin="round"/>
<path d="M2.66744 29.1515C3.47076 29.1515 4.12198 28.5003 4.12198 27.697C4.12198 26.8937 3.47076 26.2424 2.66744 26.2424C1.86411 26.2424 1.21289 26.8937 1.21289 27.697C1.21289 28.5003 1.86411 29.1515 2.66744 29.1515Z" stroke="white" stroke-miterlimit="10" stroke-linecap="round" stroke-linejoin="round"/>
<path d="M10.4844 24.1211H9.63595C8.66625 24.1211 7.87837 24.909 7.87837 25.8787C7.87837 26.8484 7.0905 27.6362 6.1208 27.6362H4.42383" stroke="white" stroke-miterlimit="10" stroke-linecap="round" stroke-linejoin="round"/>
<path d="M9.03125 22.1211H10.4858" stroke="white" stroke-miterlimit="10" stroke-linecap="round" stroke-linejoin="round"/>
<path d="M9.03125 17.8789H10.4858" stroke="white" stroke-miterlimit="10" stroke-linecap="round" stroke-linejoin="round"/>
<path d="M29.5156 20H33.758" stroke="white" stroke-miterlimit="10" stroke-linecap="round" stroke-linejoin="round"/>
<path d="M35.5758 21.4545C36.3791 21.4545 37.0303 20.8033 37.0303 20C37.0303 19.1966 36.3791 18.5454 35.5758 18.5454C34.7724 18.5454 34.1212 19.1966 34.1212 20C34.1212 20.8033 34.7724 21.4545 35.5758 21.4545Z" stroke="white" stroke-miterlimit="10" stroke-linecap="round" stroke-linejoin="round"/>
<path d="M37.3333 29.1515C38.1367 29.1515 38.7879 28.5003 38.7879 27.697C38.7879 26.8937 38.1367 26.2424 37.3333 26.2424C36.53 26.2424 35.8788 26.8937 35.8788 27.697C35.8788 28.5003 36.53 29.1515 37.3333 29.1515Z" stroke="white" stroke-miterlimit="10" stroke-linecap="round" stroke-linejoin="round"/>
<path d="M29.5156 24.1211H30.3641C31.3338 24.1211 32.1217 24.909 32.1217 25.8787C32.1217 26.8484 32.9096 27.6362 33.8793 27.6362H35.455" stroke="white" stroke-miterlimit="10" stroke-linecap="round" stroke-linejoin="round"/>
<path d="M37.3333 13.7576C38.1367 13.7576 38.7879 13.1064 38.7879 12.3031C38.7879 11.4997 38.1367 10.8485 37.3333 10.8485C36.53 10.8485 35.8788 11.4997 35.8788 12.3031C35.8788 13.1064 36.53 13.7576 37.3333 13.7576Z" stroke="white" stroke-miterlimit="10" stroke-linecap="round" stroke-linejoin="round"/>
<path d="M29.5156 15.8787H30.3641C31.3338 15.8787 32.1217 15.0908 32.1217 14.1211C32.1217 13.1514 32.9096 12.3635 33.8793 12.3635H35.455" stroke="white" stroke-miterlimit="10" stroke-linecap="round" stroke-linejoin="round"/>
<path d="M30.9702 17.8789H29.5156" stroke="white" stroke-miterlimit="10" stroke-linecap="round" stroke-linejoin="round"/>
<path d="M30.9702 22.1211H29.5156" stroke="white" stroke-miterlimit="10" stroke-linecap="round" stroke-linejoin="round"/>
<path d="M21.5145 18.9698L14.7266 27.0304C14.3629 27.4547 13.7569 27.5153 13.3326 27.1516C12.9084 26.788 12.8478 26.1819 13.2114 25.7577L19.8781 17.7577M22.4842 14.7274L23.0902 14.0001C23.4539 13.5759 24.0599 13.5153 24.4842 13.8789C24.9084 14.2425 24.969 14.8486 24.6054 15.2728L23.9993 16.0001M22.6054 18.6668L27.2114 22.5456C27.6357 20.1213 24.3629 17.3335 23.8781 17.091" stroke="white" stroke-miterlimit="10" stroke-linecap="round" stroke-linejoin="round"/>
<path d="M23.9397 17.0908L24.1216 16.909C24.364 16.606 24.3034 16.1817 24.061 15.9393L22.6064 14.7272C22.3034 14.4848 21.8791 14.5454 21.6367 14.7878L21.5155 14.9696C20.9094 14.3636 17.8185 11.9999 15.6367 12.7272L20.1822 16.5454L20.0004 16.7272C19.7579 17.0302 19.8185 17.4545 20.061 17.6969L21.5155 18.909C21.8185 19.1514 22.2428 19.0908 22.4852 18.8484L22.667 18.6666L27.2731 22.5454C27.6367 20.1211 24.364 17.3332 23.9397 17.0908Z" stroke="white" stroke-miterlimit="10" stroke-linecap="round" stroke-linejoin="round"/>
</g>
<defs>
<clipPath id="clip0_130_1034">
<rect width="40" height="40" fill="white"/>
</clipPath>
</defs>
</svg>
