<svg width="50" height="51" viewBox="0 0 50 51" fill="none" xmlns="http://www.w3.org/2000/svg">
<path d="M16.7588 32.5734L18.1762 33.9907C18.4193 34.234 18.7429 34.368 19.087 34.368C19.4311 34.368 19.7547 34.2341 19.9979 33.9908C20.5511 33.4375 21.2549 33.4502 21.7287 33.6465C22.2027 33.8429 22.7092 34.3315 22.7092 35.1139C22.7092 35.8242 23.287 36.402 23.9973 36.402H26.0017C26.7119 36.402 27.2898 35.8242 27.2897 35.1139C27.2897 34.3327 27.7966 33.8446 28.2708 33.648C28.7453 33.4517 29.4487 33.4384 30.001 33.9908C30.5033 34.4929 31.3203 34.4931 31.8228 33.9908L33.2402 32.5734C33.7424 32.0711 33.7424 31.254 33.2402 30.7517C32.6878 30.1994 32.7009 29.4957 32.8974 29.0214C33.094 28.5472 33.5821 28.0403 34.3632 28.0403C35.0734 28.0403 35.6512 27.4625 35.6512 26.7522V24.7479C35.6512 24.0377 35.0735 23.4598 34.3632 23.4598C33.5821 23.4598 33.0939 22.9529 32.8974 22.4787C32.701 22.0044 32.6878 21.3009 33.2402 20.7485C33.4834 20.5053 33.6174 20.1817 33.6174 19.8376C33.6174 19.4935 33.4834 19.17 33.2402 18.9268L31.8228 17.5094C31.3204 17.0072 30.5034 17.0073 30.001 17.5094C29.4489 18.0617 28.7452 18.0486 28.2708 17.8522C27.7966 17.6556 27.2897 17.1675 27.2897 16.3864C27.2897 15.6761 26.7119 15.0983 26.0016 15.0983H23.9973C23.2871 15.0983 22.7092 15.676 22.7092 16.3864C22.7092 17.1675 22.2023 17.6557 21.7281 17.8522C21.2538 18.0484 20.5502 18.0618 19.9979 17.5094C19.7547 17.2661 19.4311 17.1322 19.087 17.1322C18.7429 17.1322 18.4194 17.2662 18.1762 17.5094L16.7589 18.9268C16.5156 19.17 16.3816 19.4935 16.3816 19.8376C16.3816 20.1817 16.5155 20.5053 16.7588 20.7485C17.3112 21.3008 17.2981 22.0044 17.1016 22.4787C16.905 22.9529 16.4168 23.4598 15.6357 23.4598C14.9255 23.4598 14.3477 24.0376 14.3477 24.7479V26.7522C14.3477 27.4624 14.9254 28.0403 15.6357 28.0403C16.4168 28.0403 16.905 28.5472 17.1016 29.0214C17.298 29.4957 17.3112 30.1993 16.7588 30.7517C16.2566 31.254 16.2566 32.0711 16.7588 32.5734ZM15.6355 26.7806C15.6199 26.7806 15.607 26.7679 15.607 26.7521V24.7478C15.607 24.7322 15.6198 24.7193 15.6355 24.7193C16.8082 24.7193 17.8157 24.0454 18.2651 22.9606C18.7144 21.8758 18.4785 20.6868 17.6494 19.8577C17.6468 19.8552 17.6409 19.8493 17.6409 19.8374C17.6409 19.8256 17.6468 19.8198 17.6494 19.8173L19.0668 18.3998C19.0694 18.3972 19.0751 18.3915 19.0869 18.3915C19.0988 18.3915 19.1047 18.3974 19.1072 18.3999C19.9363 19.2289 21.1251 19.4651 22.2101 19.0156C23.2949 18.5662 23.9688 17.5587 23.9688 16.3862C23.9688 16.3704 23.9815 16.3575 23.9973 16.3575H26.0016C26.0173 16.3575 26.0301 16.3703 26.0301 16.3862C26.0301 17.5588 26.704 18.5663 27.7888 19.0156C28.8735 19.465 30.0625 19.2291 30.8918 18.3999C30.9028 18.3888 30.921 18.3886 30.9321 18.3999L32.3496 19.8173C32.3522 19.8199 32.3579 19.8256 32.3579 19.8374C32.3579 19.8493 32.352 19.8552 32.3495 19.8577C31.5203 20.6868 31.2844 21.8758 31.7338 22.9606C32.1832 24.0454 33.1907 24.7193 34.3632 24.7193C34.3789 24.7193 34.3918 24.7321 34.3918 24.7478V26.7521C34.3918 26.7678 34.379 26.7806 34.3632 26.7806C33.1906 26.7806 32.1831 27.4545 31.7338 28.5393C31.2844 29.6242 31.5203 30.8131 32.3495 31.6423C32.3606 31.6534 32.3606 31.6716 32.3495 31.6826L30.9321 33.1C30.921 33.1113 30.9028 33.1112 30.8918 33.1C30.0626 32.2709 28.8737 32.0348 27.7888 32.4844C26.704 32.9337 26.0301 33.9413 26.0301 35.1139C26.0301 35.1295 26.0173 35.1424 26.0016 35.1424H23.9973C23.9816 35.1424 23.9688 35.1296 23.9688 35.1139C23.9688 33.9401 23.2952 32.9319 22.2107 32.4828C21.8473 32.3322 21.4723 32.2588 21.1028 32.2588C20.3698 32.2588 19.659 32.5483 19.1072 33.1C19.1046 33.1026 19.0988 33.1085 19.0869 33.1085C19.0751 33.1085 19.0693 33.1026 19.0668 33.1L17.6494 31.6826C17.6382 31.6716 17.6382 31.6534 17.6494 31.6423C18.4785 30.8132 18.7144 29.6243 18.2651 28.5393C17.8157 27.4545 16.8081 26.7806 15.6355 26.7806Z" fill="#F45500"/>
<path d="M24.9999 31.2775C28.0478 31.2775 30.5274 28.7979 30.5274 25.7501C30.5274 22.7022 28.0478 20.2226 24.9999 20.2226C21.9521 20.2226 19.4725 22.7023 19.4725 25.7501C19.4725 28.7978 21.9521 31.2775 24.9999 31.2775ZM24.9999 21.4822C27.3532 21.4822 29.2679 23.3968 29.2679 25.7501C29.2679 28.1034 27.3533 30.018 24.9999 30.018C22.6466 30.018 20.732 28.1035 20.732 25.7501C20.732 23.3967 22.6466 21.4822 24.9999 21.4822ZM34.4822 8.56552C36.2328 9.53376 37.8207 10.7588 39.2018 12.2066C39.3206 12.3313 39.4853 12.4018 39.6575 12.4018H41.9808V14.3356C41.9808 14.5966 42.1418 14.8305 42.3856 14.9238C42.4588 14.9519 42.535 14.9654 42.6104 14.9654C42.786 14.9654 42.9578 14.8919 43.0796 14.756L47.0613 10.3135C47.2757 10.0743 47.2757 9.71207 47.0613 9.47285L43.0796 5.0304C42.9053 4.83616 42.6296 4.76922 42.3856 4.86252C42.1418 4.95581 41.9808 5.18973 41.9808 5.45073V7.38469H34.787C34.4998 7.38469 34.2489 7.57902 34.1772 7.85711C34.1055 8.1352 34.231 8.42652 34.4822 8.56552ZM42.6106 8.64424C42.9584 8.64424 43.2404 8.36228 43.2404 8.01447V7.09697L45.7465 9.89318L43.2404 12.6894V11.772C43.2404 11.4242 42.9584 11.1422 42.6106 11.1422H39.9247C39.0209 10.2188 38.0366 9.38351 36.9823 8.64424H42.6106Z" fill="#F45500"/>
<path d="M47.0614 41.1865L43.0797 36.744C42.9055 36.5498 42.6297 36.4828 42.3857 36.5761C42.1419 36.6694 41.9809 36.9034 41.9809 37.1643V39.0983H25.0001C17.6399 39.0983 11.6518 33.1103 11.6518 25.75C11.6518 21.3978 13.7841 17.3068 17.3557 14.8069C17.5809 14.6493 17.6779 14.3638 17.5952 14.1016C17.5126 13.8394 17.2695 13.6611 16.9946 13.6611H11.4645C11.2794 13.6611 11.1038 13.7426 10.9841 13.8838C8.17925 17.1936 6.63458 21.4077 6.63458 25.75C6.63458 35.8766 14.8732 44.1153 25 44.1153H41.9809V46.0493C41.9809 46.3103 42.1418 46.5442 42.3856 46.6375C42.4589 46.6655 42.5351 46.679 42.6104 46.679C42.7861 46.679 42.9578 46.6055 43.0797 46.4696L47.0614 42.0271C47.2758 41.7879 47.2758 41.4257 47.0614 41.1865ZM43.2404 44.403V43.4855C43.2404 43.1377 42.9584 42.8557 42.6106 42.8557H25C15.5678 42.8557 7.89414 35.1822 7.89414 25.75C7.89414 21.8023 9.2648 17.9685 11.7595 14.9208L15.1977 14.9208C12.1607 17.6734 10.3921 21.6031 10.3921 25.75C10.3921 33.8048 16.9452 40.3579 25 40.3579H42.6106C42.9584 40.3579 43.2404 40.0759 43.2404 39.7281V38.8106L45.7466 41.6068L43.2404 44.403Z" fill="#F45500"/>
<path d="M15.5172 42.9344C13.7674 41.9667 12.1794 40.7417 10.7976 39.2934C10.6787 39.1688 10.5141 39.0983 10.342 39.0983H8.01856V37.1643C8.01856 36.9034 7.85761 36.6694 7.61379 36.5761C7.3698 36.4828 7.09396 36.5498 6.91978 36.744L2.93814 41.1865C2.72375 41.4257 2.72375 41.7879 2.93814 42.0271L6.91978 46.4696C7.04169 46.6055 7.21334 46.679 7.38896 46.679C7.46436 46.679 7.54047 46.6655 7.6138 46.6375C7.85761 46.5442 8.01856 46.3102 8.01856 46.0493V44.1153H15.2125C15.4997 44.1153 15.7505 43.921 15.8222 43.6429C15.894 43.3648 15.7685 43.0734 15.5172 42.9344ZM7.38869 42.8557C7.04087 42.8557 6.75892 43.1377 6.75892 43.4855V44.403L4.25276 41.6068L6.759 38.8106V39.7281C6.759 40.0759 7.04097 40.3579 7.38878 40.3579H10.0748C10.9789 41.2813 11.9632 42.1167 13.0171 42.8557H7.38869ZM6.91978 14.7559C7.09395 14.9501 7.36979 15.017 7.61379 14.9238C7.8576 14.8305 8.01855 14.5965 8.01855 14.3355V12.4017H24.9994C32.3596 12.4017 38.3477 18.3896 38.3477 25.7499C38.3477 30.1022 36.2153 34.1931 32.6438 36.693C32.4186 36.8506 32.3216 37.1361 32.4043 37.3983C32.4869 37.6605 32.73 37.8387 33.0049 37.8387H38.535C38.7201 37.8387 38.8957 37.7573 39.0154 37.6162C41.8202 34.3063 43.3648 30.0923 43.3648 25.75C43.3648 15.6233 35.1262 7.38469 24.9995 7.38469H8.01855V5.45073C8.01855 5.18973 7.8576 4.95581 7.61379 4.86252C7.36979 4.76922 7.09395 4.83616 6.91978 5.0304L2.93814 9.47285C2.72375 9.71207 2.72375 10.0743 2.93814 10.3135L6.91978 14.7559ZM6.759 7.09697V8.01446C6.759 8.36228 7.04096 8.64424 7.38878 8.64424H24.9995C34.4317 8.64424 42.1053 16.3178 42.1053 25.75C42.1053 29.6976 40.7347 33.5315 38.24 36.5792H34.8018C37.8388 33.8267 39.6073 29.8969 39.6073 25.75C39.6073 17.6952 33.0543 11.1422 24.9995 11.1422H7.38878C7.04096 11.1422 6.759 11.4242 6.759 11.772V12.6894L4.25285 9.89318L6.759 7.09697Z" fill="#F45500"/>
</svg>
