<svg width="1402" height="638" viewBox="0 0 1402 638" fill="none" xmlns="http://www.w3.org/2000/svg">
<mask id="mask0_130_529" style="mask-type:alpha" maskUnits="userSpaceOnUse" x="0" y="0" width="1402" height="638">
<rect x="0.5" y="0.5" width="1401" height="637" rx="19.5" fill="url(#paint0_linear_130_529)" stroke="url(#paint1_linear_130_529)"/>
</mask>
<g mask="url(#mask0_130_529)">
<path d="M139.834 667.421L176.21 521.761L208.831 497.475L238.183 501.291" stroke="#F45500" stroke-width="1.08501" stroke-linecap="round" stroke-linejoin="round"/>
<path d="M235.572 412.952L167.562 313.072" stroke="#F45500" stroke-width="1.08501" stroke-linecap="round" stroke-linejoin="round"/>
<path d="M1187.06 615.085L1218.57 650.586L1232.17 665.907L1244.29 679.588L1257.95 694.711L1323.78 695.647L1347.1 695.917" stroke="#F45500" stroke-width="1.08501" stroke-linecap="round" stroke-linejoin="round"/>
<path d="M1035.39 516.934L1035.46 516.772L1035.71 516.412L1036.72 514.702L1036.86 513.585L1037.69 511.659L1039.68 507.122L1039.94 506.528L1045.86 492.972L1047.88 488.345L1049.42 484.835L1054.54 473.079L1062.75 454.302L1063.86 451.746L1069.97 437.776L1073.49 429.728L1074.93 426.434" stroke="#F45500" stroke-width="1.08501" stroke-linecap="round" stroke-linejoin="round"/>
<path d="M1359.81 474.754L1376.66 550.024L1381.04 569.575L1403.91 600.09L1412 602.88" stroke="#F45500" stroke-width="1.08501" stroke-linecap="round" stroke-linejoin="round"/>
<path d="M1061.71 572.042L1070.67 555.515L1094.22 512.092L1104.1 493.856" stroke="#F45500" stroke-width="1.08501" stroke-linecap="round" stroke-linejoin="round"/>
<path d="M1359.81 474.754L1362.61 478.337L1367.61 484.71L1373.72 492.523L1378.39 498.5L1383.76 505.359L1391.36 515.081L1394.1 518.591L1399.51 525.523L1400.91 527.305L1402.89 529.825L1405.67 533.39L1407.92 536.252L1409.36 538.07L1411.94 540.213L1412 540.267" stroke="#F45500" stroke-width="1.08501" stroke-linecap="round" stroke-linejoin="round"/>
<path d="M1049.81 572.76L1093.73 509.319L1084.03 454.23L1074.92 426.434L1084.71 412.536L1086.15 410.501L1103.59 385.765L1103.9 385.351L1104.04 385.135L1117.28 366.358" stroke="#F45500" stroke-width="1.08501" stroke-linecap="round" stroke-linejoin="round"/>
<path d="M-1.92383 464.744L31.5417 399.502L33.6617 399.141L71.6006 392.661L98.7965 390.41L140.004 386.989L163.322 418.584L172.716 431.312L193.231 453.222L225.366 487.589L238.175 501.289L239.773 504.871L294.239 627.11L327.488 644.555L348.794 634.095L368.23 618.307L425.892 625.094L483.86 625.634L496.865 608.027L508.829 595.389L512.08 596.092L523.721 598.612L536.349 601.348L562.431 607.001L616.268 609.594L623.148 602.05L629.525 595.065L635.435 586.226L640.932 582.572L646.051 576.955L650.847 571.716L655.32 566.801L659.541 562.174L663.494 557.836L667.229 553.749L670.751 549.896L674.074 546.242L677.236 542.785L680.218 539.527L683.055 536.412L685.75 533.46L688.319 530.633L690.78 527.951L693.115 525.395L695.343 522.946L697.48 518.464L699.51 516.484L701.468 512.973L703.336 505.321L705.151 496.896L706.372 490.613L708.528 490.398L718.767 494.268L722.413 495.636L730.999 498.877L734.395 500.155L735.311 500.425L738.886 501.487L740.502 501.955L745.874 503.557L750.831 505.034L760.621 507.086L786.291 508.094L794.464 505.862L811.601 502.513H811.942L812.32 503.071L812.715 505.988L813.128 509.39L813.541 512.937L813.991 514.197L814.458 518.176L814.943 521.146L815.446 522.712L815.967 524.999L816.81 526.439L817.709 529.679L818.338 535.044L819.002 539.617L819.721 543.577L820.458 546.566L821.248 550.76L822.092 553.965L822.972 558.826L823.906 562.427L824.912 567.899L825.972 572.904L827.103 578.233L828.325 583.94L829.637 590.061L831.038 592.833L881.964 597.046L885.503 604.175L887.155 604.391L887.461 604.337L888.251 604.193L893.478 603.257L935.962 601.096L951.267 600.304L958.272 597.64L975.301 591.141L976.828 590.565L991.127 585.11L1005.91 579.475L1009.27 578.197L1009.34 578.179L1019.1 574.632L1025.44 574.254L1048.48 572.85L1049.81 572.76L1061.71 572.04L1080.14 570.924L1081.54 572.13L1093.73 593.103L1108.7 595.767L1124.4 607.289L1157.31 631.395" stroke="#F45500" stroke-width="1.08501" stroke-linecap="round" stroke-linejoin="round"/>
<path d="M1132.06 463.376L1127.78 434.499L1117.29 366.358" stroke="#F45500" stroke-width="1.08501" stroke-linecap="round" stroke-linejoin="round"/>
<path d="M1187.06 615.085L1206.57 679.355" stroke="#F45500" stroke-width="1.08501" stroke-linecap="round" stroke-linejoin="round"/>
<path d="M1032.81 463.737L1039.63 445.158L1040.07 443.97L1046.19 427.263L1055.26 402.51" stroke="#F45500" stroke-width="1.08501" stroke-linecap="round" stroke-linejoin="round"/>
<path d="M1048.48 572.852L1040.43 510.364" stroke="#F45500" stroke-width="1.08501" stroke-linecap="round" stroke-linejoin="round"/>
<path d="M1212.46 462.657L1228.05 523.057L1257.66 561.781" stroke="#F45500" stroke-width="1.08501" stroke-linecap="round" stroke-linejoin="round"/>
<path d="M996.15 498.842L992.306 436.823L988.695 431.404L988.533 431.152" stroke="#F45500" stroke-width="1.08501" stroke-linecap="round" stroke-linejoin="round"/>
<path d="M1292.5 429.424L1299.29 442.53L1320.38 483.27" stroke="#F45500" stroke-width="1.08501" stroke-linecap="round" stroke-linejoin="round"/>
<path d="M1163.74 437.291L1177.52 494.647L1192.34 571.483L1208.34 594.293L1212.76 599.495" stroke="#F45500" stroke-width="1.08501" stroke-linecap="round" stroke-linejoin="round"/>
<path d="M1327.33 564.894L1310.5 485.394L1292.5 429.424" stroke="#F45500" stroke-width="1.08501" stroke-linecap="round" stroke-linejoin="round"/>
<path d="M253.77 489.264L310.786 607.074L368.233 618.307" stroke="#F45500" stroke-width="1.08501" stroke-linecap="round" stroke-linejoin="round"/>
<path d="M1244.86 562.607L1228.05 523.055L1177.52 494.647" stroke="#F45500" stroke-width="1.08501" stroke-linecap="round" stroke-linejoin="round"/>
<path d="M1222.68 600.053L1244.17 653.791L1267.91 666.285L1339.91 667.041L1390.96 667.581" stroke="#F45500" stroke-width="1.08501" stroke-linecap="round" stroke-linejoin="round"/>
<path d="M1292.51 429.424L1276.18 439.901L1245.12 461.216" stroke="#F45500" stroke-width="1.08501" stroke-linecap="round" stroke-linejoin="round"/>
<path d="M220.184 452.232L218.225 447.048L212.118 430.917L167.569 313.071L113.607 295.14" stroke="#F45500" stroke-width="1.08501" stroke-linecap="round" stroke-linejoin="round"/>
<path d="M1122.33 650.551L1108.7 595.768" stroke="#F45500" stroke-width="1.08501" stroke-linecap="round" stroke-linejoin="round"/>
<path d="M167.558 313.072L140.45 320.489L84.2252 326.106L52.1964 348.321L16.0898 388.972" stroke="#F45500" stroke-width="1.08501" stroke-linecap="round" stroke-linejoin="round"/>
<path d="M140.455 320.49L110.906 337.826L52.2014 348.322L16.7597 389.44L-3 404.616V813.711" stroke="#F45500" stroke-width="1.08501" stroke-linecap="round" stroke-linejoin="round"/>
<path d="M98.7871 390.412L110.895 337.826" stroke="#F45500" stroke-width="1.08501" stroke-linecap="round" stroke-linejoin="round"/>
<path d="M33.9609 398.313L52.1936 348.319" stroke="#F45500" stroke-width="1.08501" stroke-linecap="round" stroke-linejoin="round"/>
<path d="M1263.04 561.438L1257.65 561.78L1244.86 562.608L1192.33 571.484L1146.24 595.769" stroke="#F45500" stroke-width="1.08501" stroke-linecap="round" stroke-linejoin="round"/>
<path d="M881.971 597.047L933.13 597.443L958.279 597.641" stroke="#F45500" stroke-width="1.08501" stroke-linecap="round" stroke-linejoin="round"/>
<path d="M62.9827 585.634L17.2305 563.941" stroke="#F45500" stroke-width="1.08501" stroke-linecap="round" stroke-linejoin="round"/>
<path d="M1317.98 556.073L1331 582.177L1340.02 600.251" stroke="#F45500" stroke-width="1.08501" stroke-linecap="round" stroke-linejoin="round"/>
<path d="M1245.31 387.026L1259.84 433.905" stroke="#F45500" stroke-width="1.08501" stroke-linecap="round" stroke-linejoin="round"/>
<path d="M1390.12 633.953L1370.27 603.564L1368.26 600.486L1363.96 593.933" stroke="#F45500" stroke-width="1.08501" stroke-linecap="round" stroke-linejoin="round"/>
<path d="M417.522 520.084L402.414 543.145L386.032 574.632L368.23 618.307" stroke="#F45500" stroke-width="1.08501" stroke-linecap="round" stroke-linejoin="round"/>
<path d="M1363.96 593.933L1359.77 595.499L1340.01 600.252L1282.71 595.625L1238.39 610.477" stroke="#F45500" stroke-width="1.08501" stroke-linecap="round" stroke-linejoin="round"/>
<path d="M307.422 612.385L348.792 634.096L409.04 634.69L469.631 635.266L483.859 625.635L542.113 626.157L600.656 626.697L608.793 617.786L665.162 618.289L721.819 618.776L778.763 619.208L835.977 613.645L884.387 604.896" stroke="#F45500" stroke-width="1.08501" stroke-linecap="round" stroke-linejoin="round"/>
<path d="M310.969 606.984L331.034 566.064L349.572 514.036L366.691 456.373" stroke="#F45500" stroke-width="1.08501" stroke-linecap="round" stroke-linejoin="round"/>
<path d="M1081.95 571.735L1115.24 540.932L1136.74 494.989L1163.74 437.291" stroke="#F45500" stroke-width="1.08501" stroke-linecap="round" stroke-linejoin="round"/>
<path d="M1273.62 560.392L1261.37 492.09L1245.11 461.215L1211.15 458.01L1201.84 457.128" stroke="#F45500" stroke-width="1.08501" stroke-linecap="round" stroke-linejoin="round"/>
<path d="M1338.51 575.425L1381.05 569.574L1412 562.121" stroke="#F45500" stroke-width="1.08501" stroke-linecap="round" stroke-linejoin="round"/>
<path d="M969.44 551.482L958.393 546.711L939.603 538.592L900.299 555.155" stroke="#F45500" stroke-width="1.08501" stroke-linecap="round" stroke-linejoin="round"/>
<path d="M84.2305 326.105L113.601 295.14" stroke="#F45500" stroke-width="1.08501" stroke-linecap="round" stroke-linejoin="round"/>
<path d="M1038.73 467.265L1054.72 439.775L1060.14 430.45L1055.26 402.51" stroke="#F45500" stroke-width="1.08501" stroke-linecap="round" stroke-linejoin="round"/>
<path d="M1081.9 368.394L1086.16 410.502" stroke="#F45500" stroke-width="1.08501" stroke-linecap="round" stroke-linejoin="round"/>
<path d="M906.998 559.35L948.745 564.013L966.044 553.535L966.637 553.193" stroke="#F45500" stroke-width="1.08501" stroke-linecap="round" stroke-linejoin="round"/>
<path d="M420.451 522.805L428.373 527.738L467.228 556.632L506.209 556.884L545.333 557.118L584.583 557.352L623.977 557.604L663.496 557.838L703.159 558.09L742.966 558.342L782.898 558.324L822.975 558.828L856.099 559.026L862.818 558.324L865.368 558.054L903.469 559.242" stroke="#F45500" stroke-width="1.08501" stroke-linecap="round" stroke-linejoin="round"/>
<path d="M613.271 408.324L615.84 415.525L626.618 439.127L631.271 449.281L633.031 453.133" stroke="#F45500" stroke-width="1.08501" stroke-linecap="round" stroke-linejoin="round"/>
<path d="M903.842 559.26L944.026 550.006L966.624 553.193L969.444 551.483L977.366 546.658L990.641 538.629L991.233 538.413L1007.17 532.526L1011.17 531.049L1013.72 530.095L1029.85 524.137" stroke="#F45500" stroke-width="1.08501" stroke-linecap="round" stroke-linejoin="round"/>
<path d="M1245.11 461.215L1229.95 422.923" stroke="#F45500" stroke-width="1.08501" stroke-linecap="round" stroke-linejoin="round"/>
<path d="M1258.06 623.493L1298.33 623.853" stroke="#F45500" stroke-width="1.08501" stroke-linecap="round" stroke-linejoin="round"/>
<path d="M955.229 475.815L970.156 484.853L970.479 485.05L989.7 496.681L994.066 498.138L996.167 498.841L1000.48 500.263L1023.43 507.914L1024.28 508.202L1026.15 509.174L1030.85 511.641L1034.57 513.585L1036.44 514.557" stroke="#F45500" stroke-width="1.08501" stroke-linecap="round" stroke-linejoin="round"/>
<path d="M1229.95 422.923L1223.88 434.265L1211.14 458.011" stroke="#F45500" stroke-width="1.08501" stroke-linecap="round" stroke-linejoin="round"/>
<path d="M1263.05 561.438L1282.72 595.626L1303.11 622.558" stroke="#F45500" stroke-width="1.08501" stroke-linecap="round" stroke-linejoin="round"/>
<path d="M1159.18 398.638L1188.66 377.251L1190 376.279" stroke="#F45500" stroke-width="1.08501" stroke-linecap="round" stroke-linejoin="round"/>
<path d="M1327.48 615.985L1353.06 643.745L1411.99 644.321" stroke="#F45500" stroke-width="1.08501" stroke-linecap="round" stroke-linejoin="round"/>
<path d="M568.324 392.267L564.946 433.277L562.252 470.471" stroke="#F45500" stroke-width="1.08501" stroke-linecap="round" stroke-linejoin="round"/>
<path d="M989.697 496.681L995.14 506.439L996.703 507.357L1000.33 508.581L1001.16 508.761" stroke="#F45500" stroke-width="1.08501" stroke-linecap="round" stroke-linejoin="round"/>
<path d="M946.74 483.325L946.004 483.109L924.806 476.61L919.417 480.931L917.011 482.875L910.023 488.474L901.095 495.639L899.101 495.783L897.916 495.872L894.431 496.179L870.665 498.159L866.588 499.905L848.983 507.431L842.301 510.293L840.936 510.491L824.445 512.759L813.541 512.939L785.896 514.487L758.322 514.415L730.802 514.182L703.336 505.324L675.96 495.404L648.638 486.745L621.369 492.866L617.795 496.791L614.059 517.998L610.161 520.23L606.083 522.535L601.825 523.363L597.352 527.503L566.384 523.759L560.976 530.006L555.318 532.796L549.354 535.713L543.085 538.791L536.492 542.014L529.54 545.434L522.194 549.035L514.434 552.833L506.206 556.884L497.494 561.151L461.531 560.935" stroke="#F45500" stroke-width="1.08501" stroke-linecap="round" stroke-linejoin="round"/>
<path d="M223.066 454.806L244.605 426.235L252.185 424.201L265.46 420.619L291.651 413.561L295.782 412.445L296.968 412.121L316.063 411.653L333.039 426.649L345.361 437.541L348.253 440.097L350.068 441.682L354.199 445.336L359.57 450.089L360.899 451.277L366.684 456.372L391.94 488.039L417.52 520.084L420.448 522.802L427.741 529.589L428.01 529.823L456.842 556.576L460.183 559.672L461.53 560.932L466.524 565.559L468.572 567.467L475.434 571.968L481.254 575.802L489.876 581.473L495.75 585.344L509.116 594.129L530.079 594.291L539.545 587.882L548.365 581.905L556.575 576.343L564.263 571.121L607.465 571.41L650.846 571.716L694.372 572.004L738.077 572.31L781.943 572.598L825.971 572.904L870.179 573.192L914.548 573.498L959.08 573.804L1003.79 574.092L1025.44 574.254" stroke="#F45500" stroke-width="1.08501" stroke-linecap="round" stroke-linejoin="round"/>
<path d="M888.242 604.195L885.494 604.177L832.538 599.802L779.834 602.736L727.363 602.52L675.143 602.467L623.139 602.052L571.387 601.638L536.34 601.35" stroke="#F45500" stroke-width="1.08501" stroke-linecap="round" stroke-linejoin="round"/>
<path d="M1046.19 427.263L1043.34 392.554L1039.4 377.396" stroke="#F45500" stroke-width="1.08501" stroke-linecap="round" stroke-linejoin="round"/>
<path d="M519.463 453.095L517.703 459.54L514.415 471.656L509.17 505.682" stroke="#F45500" stroke-width="1.08501" stroke-linecap="round" stroke-linejoin="round"/>
<path d="M547.541 409.08L544.9 405.425" stroke="#F45500" stroke-width="1.08501" stroke-linecap="round" stroke-linejoin="round"/>
<path d="M469.811 481.109L468.805 482.063L465.824 484.872" stroke="#F45500" stroke-width="1.08501" stroke-linecap="round" stroke-linejoin="round"/>
<path d="M1372.96 428.758L1345.65 447.282L1337.37 458.498" stroke="#F45500" stroke-width="1.08501" stroke-linecap="round" stroke-linejoin="round"/>
<path d="M1299.29 442.529L1294.26 428.343L1288.29 411.511" stroke="#F45500" stroke-width="1.08501" stroke-linecap="round" stroke-linejoin="round"/>
<path d="M244.606 426.236L212.109 430.917" stroke="#F45500" stroke-width="1.08501" stroke-linecap="round" stroke-linejoin="round"/>
<path d="M1073.49 429.729L1068.03 421.592L1055.25 402.51" stroke="#F45500" stroke-width="1.08501" stroke-linecap="round" stroke-linejoin="round"/>
<path d="M169.895 412.139L186.062 440.62" stroke="#F45500" stroke-width="1.08501" stroke-linecap="round" stroke-linejoin="round"/>
<path d="M17.2254 563.941L-1.92383 590.117" stroke="#F45500" stroke-width="1.08501" stroke-linecap="round" stroke-linejoin="round"/>
<path d="M1336.13 479.866L1332.59 453.312L1331.44 449.477" stroke="#F45500" stroke-width="1.08501" stroke-linecap="round" stroke-linejoin="round"/>
<path d="M1158.04 596.364L1168.74 625.132" stroke="#F45500" stroke-width="1.08501" stroke-linecap="round" stroke-linejoin="round"/>
<path d="M1362.62 478.336L1361.84 474.322L1356.89 449.082" stroke="#F45500" stroke-width="1.08501" stroke-linecap="round" stroke-linejoin="round"/>
<path d="M480.305 441.898L478.634 444.311L469.67 458.335L464.317 466.598" stroke="#F45500" stroke-width="1.08501" stroke-linecap="round" stroke-linejoin="round"/>
<path d="M919.397 480.64L917.061 451.71L914.672 430.97" stroke="#F45500" stroke-width="1.08501" stroke-linecap="round" stroke-linejoin="round"/>
<path d="M963.066 421.286L940.486 418.568L928.972 424.095L914.672 430.972" stroke="#F45500" stroke-width="1.08501" stroke-linecap="round" stroke-linejoin="round"/>
<path d="M1215.78 431.961L1202.48 401.663L1190 376.279" stroke="#F45500" stroke-width="1.08501" stroke-linecap="round" stroke-linejoin="round"/>
<path d="M507.677 443.627L505.45 444.563L497.24 447.966L486.462 452.431L486.068 453.187L473.295 477.436" stroke="#F45500" stroke-width="1.08501" stroke-linecap="round" stroke-linejoin="round"/>
<path d="M544.897 405.425L524.903 422.942L520.916 450.432" stroke="#F45500" stroke-width="1.08501" stroke-linecap="round" stroke-linejoin="round"/>
<path d="M1068.35 663.369L1054.5 639.641L1041.53 611.665L1029.78 595.768L1019.1 574.633" stroke="#F45500" stroke-width="1.08501" stroke-linecap="round" stroke-linejoin="round"/>
<path d="M621.289 446.939L607.924 422.996L603.953 420.241L601.654 419.575" stroke="#F45500" stroke-width="1.08501" stroke-linecap="round" stroke-linejoin="round"/>
<path d="M533.656 529.879L560.978 530.005L592.684 530.167L624.479 530.329L656.364 530.473L688.321 530.635L720.386 530.797L752.54 530.959L784.766 530.761L802.029 528.439L816.274 526.512" stroke="#F45500" stroke-width="1.08501" stroke-linecap="round" stroke-linejoin="round"/>
<path d="M831.039 592.834L832.548 599.801L834.2 607.128L835.979 613.646L837.918 625.905L840.038 637.427L842.373 649.741L844.942 661.803L847.781 675.161L850.96 690.067L854.534 704.001L858.559 721.896L863.157 742.437L868.438 757.919L874.564 787.678L881.193 814.124" stroke="#F45500" stroke-width="1.08501" stroke-linecap="round" stroke-linejoin="round"/>
<path d="M893.482 603.258L897.992 626.625L902.949 635.987L929.822 637.715" stroke="#F45500" stroke-width="1.08501" stroke-linecap="round" stroke-linejoin="round"/>
<path d="M1068.03 421.592L1064.9 394.912L1060.63 361.949" stroke="#F45500" stroke-width="1.08501" stroke-linecap="round" stroke-linejoin="round"/>
<path d="M837.198 521.202L815.193 521.923L785.464 521.022L756.058 520.878L726.724 519.312L697.48 518.466L668.289 520.482L665.504 522.823L662.595 525.253L659.541 527.809L628.41 527.647L624.476 530.33L620.345 533.12L616.016 536.054L582.639 535.892L549.354 535.712L522.93 535.568" stroke="#F45500" stroke-width="1.08501" stroke-linecap="round" stroke-linejoin="round"/>
<path d="M824.448 512.758L813.993 514.199L809.97 514.541L785.755 516.611L757.589 516.467L729.494 516.179L701.471 512.974L673.519 508.564L645.623 506.691L617.798 496.79L617.025 497.222L592.811 510.454L590.044 511.966L585.715 517.871L571.613 517.097L570.967 517.061L557.441 516.305L529.238 517.619L503.102 517.511" stroke="#F45500" stroke-width="1.08501" stroke-linecap="round" stroke-linejoin="round"/>
<path d="M1080.13 570.924L1081.54 572.13L1116.17 586.856L1124.36 590.475L1135.07 595.21" stroke="#F45500" stroke-width="1.08501" stroke-linecap="round" stroke-linejoin="round"/>
<path d="M700.558 469.55L677.098 458.946" stroke="#F45500" stroke-width="1.08501" stroke-linecap="round" stroke-linejoin="round"/>
<path d="M487.326 513.263L512.996 513.371L539.995 513.497L567.048 513.605L571.161 512.021L578.67 509.788L594.191 504.712L614.794 495.728L618.244 494.234L621.369 492.866L624.818 475.907" stroke="#F45500" stroke-width="1.08501" stroke-linecap="round" stroke-linejoin="round"/>
<path d="M372.494 413.599L397.768 411.169" stroke="#F45500" stroke-width="1.08501" stroke-linecap="round" stroke-linejoin="round"/>
<path d="M568.314 392.267L560.176 398.856L548.59 408.217" stroke="#F45500" stroke-width="1.08501" stroke-linecap="round" stroke-linejoin="round"/>
<path d="M485.966 453.223L475.457 456.518L464.32 466.599L457.027 473.206" stroke="#F45500" stroke-width="1.08501" stroke-linecap="round" stroke-linejoin="round"/>
<path d="M975.312 591.142L927.979 590.8L878.706 590.422L829.648 590.062L780.788 589.396L732.143 589.198L683.695 588.964L635.446 586.228L587.411 588.244L539.557 587.884L514.947 587.685" stroke="#F45500" stroke-width="1.08501" stroke-linecap="round" stroke-linejoin="round"/>
<path d="M1005.92 579.477L964.8 579.189L918.723 578.865L872.827 578.541L827.11 578.235L781.591 577.911L736.234 577.587L691.056 577.281L646.058 576.956L601.239 576.651L556.582 576.345L512.123 576.02L487.818 575.859" stroke="#F45500" stroke-width="1.08501" stroke-linecap="round" stroke-linejoin="round"/>
<path d="M1062.75 454.303L1060.14 430.45" stroke="#F45500" stroke-width="1.08501" stroke-linecap="round" stroke-linejoin="round"/>
<path d="M562.321 381.805L550.25 402.418" stroke="#F45500" stroke-width="1.08501" stroke-linecap="round" stroke-linejoin="round"/>
<path d="M786.846 500.625L810.414 498.59L810.629 497.817L819.862 496.701" stroke="#F45500" stroke-width="1.08501" stroke-linecap="round" stroke-linejoin="round"/>
<path d="M988.057 430.934L966.375 421.681" stroke="#F45500" stroke-width="1.08501" stroke-linecap="round" stroke-linejoin="round"/>
<path d="M1175.09 443.214L1171.69 419.432L1159.82 399.125" stroke="#F45500" stroke-width="1.08501" stroke-linecap="round" stroke-linejoin="round"/>
<path d="M786.938 499.04L810.416 498.59L816.882 498.23" stroke="#F45500" stroke-width="1.08501" stroke-linecap="round" stroke-linejoin="round"/>
<path d="M964.2 632.261L958.397 609.65L951.266 600.306" stroke="#F45500" stroke-width="1.08501" stroke-linecap="round" stroke-linejoin="round"/>
<path d="M811.592 502.478L811.537 501.703L810.909 500.533L810.424 498.589L809.957 497.815L787 498.373L763.683 498.967" stroke="#F45500" stroke-width="1.08501" stroke-linecap="round" stroke-linejoin="round"/>
<path d="M1039.4 377.395L1056.49 361.967" stroke="#F45500" stroke-width="1.08501" stroke-linecap="round" stroke-linejoin="round"/>
<path d="M764.182 497.653L787.085 497.005L809.521 495.781L822.922 495.168" stroke="#F45500" stroke-width="1.08501" stroke-linecap="round" stroke-linejoin="round"/>
<path d="M1381.04 600.359L1403.91 600.089L1412 586.497" stroke="#F45500" stroke-width="1.08501" stroke-linecap="round" stroke-linejoin="round"/>
<path d="M1039.68 507.123L1022.74 502.334L1000.46 500.264" stroke="#F45500" stroke-width="1.08501" stroke-linecap="round" stroke-linejoin="round"/>
<path d="M1384.78 462.783L1372.96 428.758L1361.61 409.567" stroke="#F45500" stroke-width="1.08501" stroke-linecap="round" stroke-linejoin="round"/>
<path d="M1411.99 630.873L1390.12 633.952" stroke="#F45500" stroke-width="1.08501" stroke-linecap="round" stroke-linejoin="round"/>
<path d="M466.533 565.56L488.233 565.704L529.783 565.974L571.476 566.244L613.33 566.514L655.328 566.803L697.506 567.072L739.811 567.343L782.294 567.631L824.921 567.9H867.709L910.642 564.84" stroke="#F45500" stroke-width="1.08501" stroke-linecap="round" stroke-linejoin="round"/>
<path d="M519.459 453.095L515.777 456.372L504.459 466.49L503.453 467.39" stroke="#F45500" stroke-width="1.08501" stroke-linecap="round" stroke-linejoin="round"/>
<path d="M946.014 483.106L943.391 462.169L940.499 418.566L937.715 414.443" stroke="#F45500" stroke-width="1.08501" stroke-linecap="round" stroke-linejoin="round"/>
<path d="M401.154 425.282L408.842 434.104L410.657 436.192L433.362 462.296L438.787 468.525L447.805 484.421L454.254 495.763L476.546 535.063L481.342 537.313L487.468 540.194L503.617 547.773L514.431 552.832L552.441 553.066L590.578 553.3L628.84 553.534L633.439 549.681L670.749 549.897L708.184 550.113L745.763 550.329L783.433 550.545L821.246 550.761L859.184 550.996L897.249 545L935.421 528.618L973.737 527.124L991.233 538.412" stroke="#F45500" stroke-width="1.08501" stroke-linecap="round" stroke-linejoin="round"/>
<path d="M483.035 507.591L503.729 507.681L529.129 507.772L554.583 507.88L559.073 506.151L577.989 504.657" stroke="#F45500" stroke-width="1.08501" stroke-linecap="round" stroke-linejoin="round"/>
<path d="M1104.05 385.136L1103.19 384.507L1098.41 380.636L1081.9 368.394" stroke="#F45500" stroke-width="1.08501" stroke-linecap="round" stroke-linejoin="round"/>
<path d="M787.635 489.031L808.095 489.101" stroke="#F45500" stroke-width="1.08501" stroke-linecap="round" stroke-linejoin="round"/>
<path d="M994.052 498.141L987.638 493.01L969.783 478.698L959.346 472.163L951.748 467.41L943.377 462.171L917.06 451.712L890.78 460.353L885.696 464.044L864.572 479.346L851.835 486.817L838.417 494.684L832.704 496.521L812.137 502.786L811.597 502.516L799.67 503.758L786.575 504.442L762.36 502.84L742.205 501.976" stroke="#F45500" stroke-width="1.08501" stroke-linecap="round" stroke-linejoin="round"/>
<path d="M613.265 408.324L610.624 419.432L607.912 422.996L606.115 443.376" stroke="#F45500" stroke-width="1.08501" stroke-linecap="round" stroke-linejoin="round"/>
<path d="M240.15 504.44L253.767 489.264" stroke="#F45500" stroke-width="1.08501" stroke-linecap="round" stroke-linejoin="round"/>
<path d="M350.066 441.684L366.179 429.244L372.485 413.6" stroke="#F45500" stroke-width="1.08501" stroke-linecap="round" stroke-linejoin="round"/>
<path d="M977.377 546.656L973.749 527.123L968.737 519.67L963.994 496.23L959.504 486.131L955.229 475.815" stroke="#F45500" stroke-width="1.08501" stroke-linecap="round" stroke-linejoin="round"/>
<path d="M668.292 520.48L639.191 520.354L610.163 520.228L590.582 520.138" stroke="#F45500" stroke-width="1.08501" stroke-linecap="round" stroke-linejoin="round"/>
<path d="M748.813 485.735L768.141 486.294L787.811 486.366L807.409 485.898L826.755 485.465L834.012 484.295" stroke="#F45500" stroke-width="1.08501" stroke-linecap="round" stroke-linejoin="round"/>
<path d="M1030.89 462.584L1039.62 445.157" stroke="#F45500" stroke-width="1.08501" stroke-linecap="round" stroke-linejoin="round"/>
<path d="M768.674 484.584L787.931 484.836L807.206 484.908L826.516 484.963" stroke="#F45500" stroke-width="1.08501" stroke-linecap="round" stroke-linejoin="round"/>
<path d="M319.023 646.194L327.484 644.556L390.572 645.186L409.038 634.69L425.888 625.095L441.318 611.124L455.492 581.492L468.569 567.468" stroke="#F45500" stroke-width="1.08501" stroke-linecap="round" stroke-linejoin="round"/>
<path d="M653.078 814.123L659.473 796.138L669.336 768.9L677.85 744.56L685.268 723.371L691.771 704.738L697.537 688.248L702.693 673.54L707.292 660.325L711.459 648.282L715.232 637.624L718.68 627.776L721.824 618.775L724.716 610.188L727.375 602.518L729.854 595.246L732.135 589.196L734.255 583.255L736.231 577.585L738.081 572.31L739.806 567.341L741.44 562.696L742.967 558.34L744.405 554.217L745.769 550.328L747.045 546.656L748.266 543.181L749.415 539.887L750.512 536.755L751.554 533.784L752.542 530.957L753.476 528.257L754.374 525.683L755.236 523.235L756.062 520.876L756.835 518.428L757.589 516.465L758.326 514.413L759.009 511.965L759.673 509.876L760.32 507.842L760.93 506.33L761.523 505.034L762.098 503.611L762.637 502.045L763.176 500.497L763.679 498.967L764.182 497.652L764.649 496.284L765.116 494.97L765.565 493.584L765.997 492.45L766.41 491.244L766.823 490.091L767.217 488.957L767.595 487.877L767.972 486.815L768.331 485.771L768.673 484.582L769.014 483.574L769.337 482.584L769.66 481.522L769.984 480.676" stroke="#F45500" stroke-width="1.08501" stroke-linecap="round" stroke-linejoin="round"/>
<path d="M1045.86 492.972L1044.35 485.663L1039.59 467.786L1038.73 467.264L1032.8 463.735L1030.9 462.583L1026.48 459.936L1014.05 452.52L1006.47 446.165L1004.24 444.31L999.41 440.242L992.152 434.174L988.793 431.366L988.541 431.15L988.039 430.952L970.866 424.291L966.375 421.681L963.07 421.285L944.999 416.406L940.256 415.128L937.705 414.443L914.676 430.97L888.899 449.423L880.923 455.256L879.809 456.066L866.247 465.986L863.193 468.218L862.528 468.758L855.936 474.159L850.295 478.767L848.068 480.586L846.739 481.666L846.703 481.702L846.595 481.792L839.553 486.905L837.254 488.633L836.697 488.255L835.889 488.597L834.739 489.173L832.799 490.307L831.039 491.459L829.925 491.855L827.877 492.648L826.296 493.782L825.273 495.168L821.734 497.058L817.099 498.733L814.063 499.651L810.902 500.533L807.83 500.731L786.795 501.379L763.425 499.723L740.899 498.12L722.414 495.636" stroke="#F45500" stroke-width="1.08501" stroke-linecap="round" stroke-linejoin="round"/>
<path d="M866.248 465.986L862.224 466.4L843.65 470.234" stroke="#F45500" stroke-width="1.08501" stroke-linecap="round" stroke-linejoin="round"/>
<path d="M503.625 547.774L522.199 549.034L559.168 549.25L565.508 545.631L571.526 542.211L606.644 542.409L641.889 542.607L677.241 542.787L712.7 542.985L748.268 543.183L783.943 543.381L819.726 543.579L855.617 538.232L878.772 533.209" stroke="#F45500" stroke-width="1.08501" stroke-linecap="round" stroke-linejoin="round"/>
<path d="M1093.74 509.32L1104.11 493.856" stroke="#F45500" stroke-width="1.08501" stroke-linecap="round" stroke-linejoin="round"/>
<path d="M916.171 483.054L892.747 488.203L866.017 493.964L839.342 500.409L812.72 505.99L798.332 508.204L786.171 510.094L759.675 509.878L735.352 503.523L733.25 502.965L724.376 498.879L718.413 496.142L706.88 490.831L705.048 490.417L690.497 487.177L678.319 479.094L673.451 479.022L670.037 478.986L658.648 478.805H657.733L651.535 478.716L643.739 477.887L624.823 475.907L620.44 477.923L600.447 487.087L598.166 488.131L594.196 504.712L590.046 511.967L577.347 513.641L562.347 515.639L534.737 515.513L507.182 515.387L488.877 515.315" stroke="#F45500" stroke-width="1.08501" stroke-linecap="round" stroke-linejoin="round"/>
<path d="M769.975 480.676L788.171 480.784L806.405 479.506L824.655 475.437L841.326 471.08" stroke="#F45500" stroke-width="1.08501" stroke-linecap="round" stroke-linejoin="round"/>
<path d="M1359.39 595.138L1338.5 575.425L1327.33 564.894L1317.97 556.073L1273.62 560.393L1263.04 561.437L1259.16 563.76L1248.16 570.367L1208.34 594.292L1190.59 598.235" stroke="#F45500" stroke-width="1.08501" stroke-linecap="round" stroke-linejoin="round"/>
<path d="M488.021 538.574L493.68 521.669" stroke="#F45500" stroke-width="1.08501" stroke-linecap="round" stroke-linejoin="round"/>
<path d="M1411.99 513.351L1400.91 527.304" stroke="#F45500" stroke-width="1.08501" stroke-linecap="round" stroke-linejoin="round"/>
<path d="M1324.45 438.081L1329.09 444.418L1331.08 447.136L1334.84 452.285" stroke="#F45500" stroke-width="1.08501" stroke-linecap="round" stroke-linejoin="round"/>
<path d="M731.396 486.707L747.851 487.283L767.395 488.417L787.604 489.587L808.226 489.659L828.327 488.615L836.698 488.093" stroke="#F45500" stroke-width="1.08501" stroke-linecap="round" stroke-linejoin="round"/>
<path d="M765.393 814.123L766.524 797.561L768.464 769.206L770.135 745.425L771.59 724.452L772.883 705.693L774.016 689.148L775.021 674.35L775.919 661.064L776.746 648.93L777.482 638.218L778.147 628.299L778.776 619.207L779.333 610.602L779.854 602.735L780.339 595.714L780.788 589.395L781.201 583.598L781.596 577.909L781.955 572.598L782.296 567.63L782.602 562.967L782.907 558.322L783.195 554.236L783.446 550.545L783.697 546.872L783.949 543.38L784.165 540.067L784.38 536.935L784.578 533.91L784.775 530.76L784.955 528.365L785.135 525.827L785.315 523.361L785.476 521.021L785.62 518.68L785.764 516.61L785.907 514.485L786.05 512.181L786.177 510.093L786.302 508.094L786.428 506.474L786.536 505.178L786.643 503.72L786.751 502.135L786.859 500.623L786.949 499.039L787.057 497.707L787.146 496.302L787.236 495.042L787.326 493.746L787.416 492.522L787.488 491.316L787.578 490.164L787.649 489.03L787.721 487.931L787.793 486.869L787.865 485.843L787.937 484.835L787.991 483.665L788.063 482.854L788.134 481.775L788.188 480.784" stroke="#F45500" stroke-width="1.08501" stroke-linecap="round" stroke-linejoin="round"/>
<path d="M888.68 530.67L886.578 514.252L884.242 507.554" stroke="#F45500" stroke-width="1.08501" stroke-linecap="round" stroke-linejoin="round"/>
<path d="M715.748 479.615L732.005 479.237L750.363 481.055L769.009 483.576L788.015 483.269L806.787 482.945L825.791 482.171L845.102 479.129L850.294 478.769" stroke="#F45500" stroke-width="1.08501" stroke-linecap="round" stroke-linejoin="round"/>
<path d="M1039.6 467.787L1054.54 473.08" stroke="#F45500" stroke-width="1.08501" stroke-linecap="round" stroke-linejoin="round"/>
<path d="M588.099 412.213L585.01 446.886L583.824 462.584" stroke="#F45500" stroke-width="1.08501" stroke-linecap="round" stroke-linejoin="round"/>
<path d="M456.696 472.793L448.63 462.135L433.361 462.297" stroke="#F45500" stroke-width="1.08501" stroke-linecap="round" stroke-linejoin="round"/>
<path d="M1000.29 426.398L1003.65 437.146L1025.49 448.145L1040.06 443.969" stroke="#F45500" stroke-width="1.08501" stroke-linecap="round" stroke-linejoin="round"/>
<path d="M560.459 396.693L562.327 381.805" stroke="#F45500" stroke-width="1.08501" stroke-linecap="round" stroke-linejoin="round"/>
<path d="M489.992 462.135L503.465 467.392L514.423 471.659L538.889 492.938L563.409 504.496L578.121 504.55" stroke="#F45500" stroke-width="1.08501" stroke-linecap="round" stroke-linejoin="round"/>
<path d="M1397.56 606.57L1408.11 608.406L1411.99 608.442" stroke="#F45500" stroke-width="1.08501" stroke-linecap="round" stroke-linejoin="round"/>
<path d="M543.502 462.153L550.023 472.181L560.927 488.887L567.573 499.077L581.962 501.399" stroke="#F45500" stroke-width="1.08501" stroke-linecap="round" stroke-linejoin="round"/>
<path d="M509.033 528.961L522.937 528.421L527.536 529.051L533.661 529.879L555.325 532.796L587.784 532.958L620.353 533.12L653.01 533.282L685.757 533.462L718.612 533.624L751.557 533.786L784.574 533.912L810.53 530.581L817.716 529.681L830.147 525.523L843.063 521.202L844.391 520.464L849.511 518.97L850.93 518.574" stroke="#F45500" stroke-width="1.08501" stroke-linecap="round" stroke-linejoin="round"/>
<path d="M397.76 411.169L391.922 416.678L389.389 430.306" stroke="#F45500" stroke-width="1.08501" stroke-linecap="round" stroke-linejoin="round"/>
<path d="M505.758 457.291L507.68 443.627" stroke="#F45500" stroke-width="1.08501" stroke-linecap="round" stroke-linejoin="round"/>
<path d="M484.412 509.408L498.064 509.462L523.949 509.57L549.906 509.678L554.576 507.878L573.941 507.95" stroke="#F45500" stroke-width="1.08501" stroke-linecap="round" stroke-linejoin="round"/>
<path d="M443.453 458.103L436.177 446.563L417.783 438.174" stroke="#F45500" stroke-width="1.08501" stroke-linecap="round" stroke-linejoin="round"/>
<path d="M625.07 447.822L622.106 464.366L620.435 477.922" stroke="#F45500" stroke-width="1.08501" stroke-linecap="round" stroke-linejoin="round"/>
<path d="M822.217 525.234L815.965 525L785.122 525.829L754.369 525.684L723.706 525.54L693.114 525.396L662.594 525.252L632.164 525.108L628.41 527.647L597.351 527.503L592.68 530.167L587.776 532.958L582.639 535.892L577.214 538.971L543.084 538.79L529.539 538.718" stroke="#F45500" stroke-width="1.08501" stroke-linecap="round" stroke-linejoin="round"/>
<path d="M872.233 511.533L870.67 498.157" stroke="#F45500" stroke-width="1.08501" stroke-linecap="round" stroke-linejoin="round"/>
<path d="M677.097 458.946L675.157 465.715L673.451 479.019" stroke="#F45500" stroke-width="1.08501" stroke-linecap="round" stroke-linejoin="round"/>
<path d="M974.764 630.586L984.23 663.279L994.739 668.338L1005.01 676.763" stroke="#F45500" stroke-width="1.08501" stroke-linecap="round" stroke-linejoin="round"/>
<path d="M749.088 503.575L761.806 504.332L786.47 505.826L794.463 505.862L812.14 502.783L821.283 497.652" stroke="#F45500" stroke-width="1.08501" stroke-linecap="round" stroke-linejoin="round"/>
<path d="M928.982 424.093L937.712 414.443" stroke="#F45500" stroke-width="1.08501" stroke-linecap="round" stroke-linejoin="round"/>
<path d="M348.252 440.099L353.084 428.146" stroke="#F45500" stroke-width="1.08501" stroke-linecap="round" stroke-linejoin="round"/>
<path d="M734.861 487.77L747.166 488.364L767.016 489.534L787.512 490.741L808.457 490.813L828.864 489.732L834.737 489.174" stroke="#F45500" stroke-width="1.08501" stroke-linecap="round" stroke-linejoin="round"/>
<path d="M401.002 425.356L391.93 416.678L389.667 416.318L372.494 413.6L353.093 428.146L333.047 426.652" stroke="#F45500" stroke-width="1.08501" stroke-linecap="round" stroke-linejoin="round"/>
<path d="M1000.28 426.398L996.188 428.18L988.787 431.367" stroke="#F45500" stroke-width="1.08501" stroke-linecap="round" stroke-linejoin="round"/>
<path d="M569.467 511.642L545.055 511.553L540.007 513.497L534.744 515.513L529.247 517.619L523.516 519.834L511.104 519.78" stroke="#F45500" stroke-width="1.08501" stroke-linecap="round" stroke-linejoin="round"/>
<path d="M1069.97 437.777L1060.14 430.45" stroke="#F45500" stroke-width="1.08501" stroke-linecap="round" stroke-linejoin="round"/>
<path d="M840.937 520.931L837.201 521.201L815.196 521.921L785.305 523.361L755.234 523.235L725.253 523.091L723.709 525.539L722.074 528.114L690.782 527.952L659.543 527.808L656.364 530.472L653.004 533.281L649.484 536.233L616.018 536.053L611.455 539.149L577.217 538.97L571.523 542.21L536.494 542.012L524.297 541.958" stroke="#F45500" stroke-width="1.08501" stroke-linecap="round" stroke-linejoin="round"/>
<path d="M345.352 437.543L353.075 428.146" stroke="#F45500" stroke-width="1.08501" stroke-linecap="round" stroke-linejoin="round"/>
<path d="M606.273 418.028L613.28 408.324" stroke="#F45500" stroke-width="1.08501" stroke-linecap="round" stroke-linejoin="round"/>
<path d="M1392.34 495.007L1384.78 462.782L1356.88 449.082L1345.66 447.282L1334.84 452.286" stroke="#F45500" stroke-width="1.08501" stroke-linecap="round" stroke-linejoin="round"/>
<path d="M651.524 478.715L648.632 486.744L645.614 506.691L642.471 518.122" stroke="#F45500" stroke-width="1.08501" stroke-linecap="round" stroke-linejoin="round"/>
<path d="M1084.72 412.536L1064.91 394.912L1043.33 392.553L1021.8 420.548L1025.5 448.146L1026.49 459.937" stroke="#F45500" stroke-width="1.08501" stroke-linecap="round" stroke-linejoin="round"/>
<path d="M364.6 440.89L366.18 429.242" stroke="#F45500" stroke-width="1.08501" stroke-linecap="round" stroke-linejoin="round"/>
<path d="M1411.98 616.561L1400.15 608.351L1397.56 606.569L1385.99 605.291" stroke="#F45500" stroke-width="1.08501" stroke-linecap="round" stroke-linejoin="round"/>
<path d="M441.377 456.499L436.168 446.561L420.217 440.08" stroke="#F45500" stroke-width="1.08501" stroke-linecap="round" stroke-linejoin="round"/>
<path d="M1116.17 586.857L1127.17 585.435L1177.52 494.647" stroke="#F45500" stroke-width="1.08501" stroke-linecap="round" stroke-linejoin="round"/>
<path d="M769.33 482.586L750.361 481.055L731.158 481.163L720.254 482.604" stroke="#F45500" stroke-width="1.08501" stroke-linecap="round" stroke-linejoin="round"/>
<path d="M504.947 432.987L499.666 442.06L499.469 442.402" stroke="#F45500" stroke-width="1.08501" stroke-linecap="round" stroke-linejoin="round"/>
<path d="M373.834 436.947L366.181 429.242" stroke="#F45500" stroke-width="1.08501" stroke-linecap="round" stroke-linejoin="round"/>
<path d="M809.666 496.447L820.337 496.482" stroke="#F45500" stroke-width="1.08501" stroke-linecap="round" stroke-linejoin="round"/>
<path d="M509.328 446.238L519.1 450.469" stroke="#F45500" stroke-width="1.08501" stroke-linecap="round" stroke-linejoin="round"/>
<path d="M894.352 527.988L897.243 545.001L900.297 555.155" stroke="#F45500" stroke-width="1.08501" stroke-linecap="round" stroke-linejoin="round"/>
<path d="M570.016 472.845L579.231 467.66" stroke="#F45500" stroke-width="1.08501" stroke-linecap="round" stroke-linejoin="round"/>
<path d="M900.268 506.258L899.1 495.781" stroke="#F45500" stroke-width="1.08501" stroke-linecap="round" stroke-linejoin="round"/>
<path d="M541.109 450.035L537.535 459.901" stroke="#F45500" stroke-width="1.08501" stroke-linecap="round" stroke-linejoin="round"/>
<path d="M544.9 405.425L548.062 408.647L564.947 433.275L585.013 446.885L594.658 450.648" stroke="#F45500" stroke-width="1.08501" stroke-linecap="round" stroke-linejoin="round"/>
<path d="M401.162 425.282L401 425.354L389.396 430.305L373.84 436.948L364.607 440.891L363.654 441.305L360.906 451.278" stroke="#F45500" stroke-width="1.08501" stroke-linecap="round" stroke-linejoin="round"/>
<path d="M1103.59 385.766L1103.18 384.506L1098.4 380.635L1097.77 380.474L1081.89 368.394L1060.62 361.949L1056.47 361.967L1053.53 367.115L1039.39 377.395L1018.19 412.572L997.031 426.363L988.049 430.935" stroke="#F45500" stroke-width="1.08501" stroke-linecap="round" stroke-linejoin="round"/>
<path d="M263.123 419.666L267.632 410.934" stroke="#F45500" stroke-width="1.08501" stroke-linecap="round" stroke-linejoin="round"/>
<path d="M359.574 450.089L363.651 441.304" stroke="#F45500" stroke-width="1.08501" stroke-linecap="round" stroke-linejoin="round"/>
<path d="M389.658 416.318L397.759 411.169" stroke="#F45500" stroke-width="1.08501" stroke-linecap="round" stroke-linejoin="round"/>
<path d="M730.996 498.878L739.996 499.652L762.899 501.272L786.683 502.928L800.874 502.19L811.526 501.704L817.095 498.734L819.861 496.7L820.329 496.483L822.538 495.817L825.269 495.169L828.591 493.837L830.442 492.883L835.382 490.308L837.25 488.634L839.549 486.906L846.591 481.793" stroke="#F45500" stroke-width="1.08501" stroke-linecap="round" stroke-linejoin="round"/>
<path d="M1387.94 500.318L1380.79 494.845" stroke="#F45500" stroke-width="1.08501" stroke-linecap="round" stroke-linejoin="round"/>
<path d="M700.547 469.552L699.02 474.106L697.457 477.671L696.433 486.546" stroke="#F45500" stroke-width="1.08501" stroke-linecap="round" stroke-linejoin="round"/>
<path d="M237.043 415.111L242.325 407.982" stroke="#F45500" stroke-width="1.08501" stroke-linecap="round" stroke-linejoin="round"/>
<path d="M690.496 487.177L695.957 490.813L705.154 496.898L709.861 498.914L732.045 508.366L759.009 511.966L786.043 512.182L804.761 510.256L813.132 509.392L840.275 506.602L848.987 507.43" stroke="#F45500" stroke-width="1.08501" stroke-linecap="round" stroke-linejoin="round"/>
<path d="M1021.8 420.548L1018.2 412.572" stroke="#F45500" stroke-width="1.08501" stroke-linecap="round" stroke-linejoin="round"/>
<path d="M1394.1 518.59L1385.46 503.306L1385.06 503.036L1378.38 498.499" stroke="#F45500" stroke-width="1.08501" stroke-linecap="round" stroke-linejoin="round"/>
<path d="M725.251 523.091L695.342 522.947L665.505 522.822L635.758 522.677L606.083 522.533L597.604 522.497" stroke="#F45500" stroke-width="1.08501" stroke-linecap="round" stroke-linejoin="round"/>
<path d="M580.104 404.148L580.948 395.741" stroke="#F45500" stroke-width="1.08501" stroke-linecap="round" stroke-linejoin="round"/>
<path d="M738.432 488.869L746.462 489.463L766.814 490.093" stroke="#F45500" stroke-width="1.08501" stroke-linecap="round" stroke-linejoin="round"/>
<path d="M295.784 412.447L293 410.7L267.635 410.934L242.325 407.982L235.57 412.951" stroke="#F45500" stroke-width="1.08501" stroke-linecap="round" stroke-linejoin="round"/>
<path d="M252.188 424.203L254.128 416.048" stroke="#F45500" stroke-width="1.08501" stroke-linecap="round" stroke-linejoin="round"/>
<path d="M924.227 503.829L927.766 508.312L931.502 519.618L935.436 528.619L939.622 538.592L944.041 550.006L948.747 564.012L953.758 568.747L959.094 573.806L964.806 579.189L970.914 584.967L976.841 590.567" stroke="#F45500" stroke-width="1.08501" stroke-linecap="round" stroke-linejoin="round"/>
<path d="M888.9 449.425L890.786 460.353L892.744 488.203L894.433 496.178" stroke="#F45500" stroke-width="1.08501" stroke-linecap="round" stroke-linejoin="round"/>
<path d="M310.852 607.201L303.199 605.617" stroke="#F45500" stroke-width="1.08501" stroke-linecap="round" stroke-linejoin="round"/>
<path d="M753.779 504.657L761.216 505.683L786.418 506.475" stroke="#F45500" stroke-width="1.08501" stroke-linecap="round" stroke-linejoin="round"/>
<path d="M519.338 522.119L527.026 522.029L541.361 519.76" stroke="#F45500" stroke-width="1.08501" stroke-linecap="round" stroke-linejoin="round"/>
<path d="M460.195 559.673L467.237 556.63L476.56 535.062" stroke="#F45500" stroke-width="1.08501" stroke-linecap="round" stroke-linejoin="round"/>
<path d="M1384.99 502.91L1380.79 494.845L1373.71 492.523" stroke="#F45500" stroke-width="1.08501" stroke-linecap="round" stroke-linejoin="round"/>
<path d="M865.367 558.052L867.702 567.9L870.182 573.193L872.822 578.54L875.66 584.282L878.696 590.421L881.965 597.047" stroke="#F45500" stroke-width="1.08501" stroke-linecap="round" stroke-linejoin="round"/>
<path d="M1004.24 444.311L1003.65 437.146" stroke="#F45500" stroke-width="1.08501" stroke-linecap="round" stroke-linejoin="round"/>
<path d="M649.615 464.204L655.183 459.865L677.099 458.947L691.2 468.687L700.559 469.551L708.517 474.826L712.918 477.725L713.026 477.815L713.996 478.444L715.756 479.615L720.264 482.603L721.612 484.44L727.702 487.5L728.636 486.96L730.486 486.708L733.63 487.77L736.845 488.868L740.186 490.002L741.856 490.578L743.851 491.263L744.641 490.777L745.593 490.831L746.114 490.02L746.832 488.904L747.516 487.806L748.18 486.762L748.827 485.736L749.455 483.809L750.066 481.685L750.677 480.407L751.251 478.265L751.808 477.725L769.826 481.091L788.131 481.775L803.884 480.893L806.597 480.749L825.117 476.896L841.338 471.081L843.656 470.235L861.277 460.316L879.618 454.375L880.93 455.257" stroke="#F45500" stroke-width="1.08501" stroke-linecap="round" stroke-linejoin="round"/>
<path d="M708.52 474.826L715.561 474.538L729.375 473.62L733.254 473.853L751.254 478.264L769.505 482.063L788.025 483.269L807.012 483.935L825.802 482.171L844.376 474.862L855.945 474.16" stroke="#F45500" stroke-width="1.08501" stroke-linecap="round" stroke-linejoin="round"/>
<path d="M491.48 518.754L494.463 517.475L497.84 516.017L501.163 517.475L501.216 517.493L506.355 519.744L514.456 523.308L522.522 526.855L535.509 526.693L541.365 519.762L548.155 519.168L552.861 518.772L571.561 517.169L582.555 519.42L585.914 520.104L597.608 522.498L601.83 523.362L632.17 525.108L635.763 522.678L639.193 520.356L642.481 518.123L670.953 515.765L699.514 516.485L728.148 516.827L756.836 518.429L785.613 518.682L814.462 518.178L843.365 513.388L868.531 512.759" stroke="#F45500" stroke-width="1.08501" stroke-linecap="round" stroke-linejoin="round"/>
<path d="M903.792 492.27L899.032 495.187L897.918 495.853L897.901 495.871" stroke="#F45500" stroke-width="1.08501" stroke-linecap="round" stroke-linejoin="round"/>
<path d="M1024.27 508.202L1027.11 514.503" stroke="#F45500" stroke-width="1.08501" stroke-linecap="round" stroke-linejoin="round"/>
<path d="M494.619 522.118L497.835 516.016" stroke="#F45500" stroke-width="1.08501" stroke-linecap="round" stroke-linejoin="round"/>
<path d="M990.645 538.628L997.022 566.893L1003.79 574.094L1009.27 578.198" stroke="#F45500" stroke-width="1.08501" stroke-linecap="round" stroke-linejoin="round"/>
<path d="M846.738 481.666L846.702 481.702L838.529 486.905L836.697 488.093L836.643 488.201L837.541 489.191L838.421 494.682L839.337 500.407L840.271 506.6L841.618 510.398L843.361 513.387L844.331 520.156" stroke="#F45500" stroke-width="1.08501" stroke-linecap="round" stroke-linejoin="round"/>
<path d="M650.738 464.817L655.175 459.866" stroke="#F45500" stroke-width="1.08501" stroke-linecap="round" stroke-linejoin="round"/>
<path d="M1031.09 511.642L1037.68 511.659" stroke="#F45500" stroke-width="1.08501" stroke-linecap="round" stroke-linejoin="round"/>
<path d="M497.25 447.965L500.537 442.438L504.956 432.987" stroke="#F45500" stroke-width="1.08501" stroke-linecap="round" stroke-linejoin="round"/>
<path d="M966.375 421.681L969.788 478.696L970.47 485.05" stroke="#F45500" stroke-width="1.08501" stroke-linecap="round" stroke-linejoin="round"/>
<path d="M485.836 511.301L492.177 511.319L518.583 511.427L545.044 511.553L549.912 509.681L571.737 509.771" stroke="#F45500" stroke-width="1.08501" stroke-linecap="round" stroke-linejoin="round"/>
<path d="M165.4 416.55L169.891 412.139" stroke="#F45500" stroke-width="1.08501" stroke-linecap="round" stroke-linejoin="round"/>
<path d="M866.596 499.903L866.021 493.962L864.584 479.344L863.201 468.218" stroke="#F45500" stroke-width="1.08501" stroke-linecap="round" stroke-linejoin="round"/>
<path d="M1138.14 378.583L1140.21 384.02" stroke="#F45500" stroke-width="1.08501" stroke-linecap="round" stroke-linejoin="round"/>
<path d="M928.501 499.491L927.622 493.802L924.801 476.61" stroke="#F45500" stroke-width="1.08501" stroke-linecap="round" stroke-linejoin="round"/>
<path d="M524.907 422.942L519.393 425.715L518.064 426.381L517.812 426.507L516.483 427.191L504.95 432.988L480.305 441.899L475.455 456.517L470.443 475.78L465.916 479.165" stroke="#F45500" stroke-width="1.08501" stroke-linecap="round" stroke-linejoin="round"/>
<path d="M548.148 519.167L544.376 519.275L541.699 519.347L523.502 519.833L518.311 521.813" stroke="#F45500" stroke-width="1.08501" stroke-linecap="round" stroke-linejoin="round"/>
<path d="M724.75 484.656L729.816 485.178L748.498 486.24L767.773 487.338L787.712 487.933L807.76 487.464L827.268 486.474L834.021 484.296L845.554 481.541L846.65 481.272L848.069 480.587" stroke="#F45500" stroke-width="1.08501" stroke-linecap="round" stroke-linejoin="round"/>
<path d="M501.98 517.188L507.172 515.387L512.992 513.371L518.578 511.427L523.95 509.573L529.123 507.772L534.081 506.062L538.877 492.938L543.493 462.153" stroke="#F45500" stroke-width="1.08501" stroke-linecap="round" stroke-linejoin="round"/>
<path d="M668.285 520.481L670.944 515.764L673.512 508.563L675.956 495.403L678.309 479.093" stroke="#F45500" stroke-width="1.08501" stroke-linecap="round" stroke-linejoin="round"/>
<path d="M653.273 464.907L655.177 459.866" stroke="#F45500" stroke-width="1.08501" stroke-linecap="round" stroke-linejoin="round"/>
<path d="M487.078 512.937L492.18 511.317L498.071 509.463L503.73 507.681L509.173 505.683" stroke="#F45500" stroke-width="1.08501" stroke-linecap="round" stroke-linejoin="round"/>
<path d="M722.178 483.864L721.011 485.016L719.807 489.031L718.766 494.269" stroke="#F45500" stroke-width="1.08501" stroke-linecap="round" stroke-linejoin="round"/>
<path d="M999.406 440.243L1003.65 437.146" stroke="#F45500" stroke-width="1.08501" stroke-linecap="round" stroke-linejoin="round"/>
<path d="M552.863 518.771L557.444 516.304L562.348 515.638L567.055 513.604L571.168 512.02L573.701 509.769L575.749 507.969L579.611 504.548L579.647 504.512L582.988 501.56L594.197 491.641L598.167 488.13" stroke="#F45500" stroke-width="1.08501" stroke-linecap="round" stroke-linejoin="round"/>
<path d="M600.436 487.085L595.299 486.545" stroke="#F45500" stroke-width="1.08501" stroke-linecap="round" stroke-linejoin="round"/>
<path d="M1014.05 452.521L1018.3 465.843L1033.03 477.059L1044.35 485.664L1049.41 484.836" stroke="#F45500" stroke-width="1.08501" stroke-linecap="round" stroke-linejoin="round"/>
<path d="M617.319 420.351L615.846 415.526" stroke="#F45500" stroke-width="1.08501" stroke-linecap="round" stroke-linejoin="round"/>
<path d="M831.036 592.834L780.325 595.715L729.848 595.247L679.568 594.184L629.522 595.067L579.692 594.689L530.077 594.293L525.945 597.101" stroke="#F45500" stroke-width="1.08501" stroke-linecap="round" stroke-linejoin="round"/>
<path d="M594.268 491.316L595.31 486.545" stroke="#F45500" stroke-width="1.08501" stroke-linecap="round" stroke-linejoin="round"/>
<path d="M433.877 450.665L436.176 446.56" stroke="#F45500" stroke-width="1.08501" stroke-linecap="round" stroke-linejoin="round"/>
<path d="M910.639 564.84L914.555 573.5L918.722 578.864L923.178 584.625L927.974 590.8L933.129 597.443L935.967 601.098" stroke="#F45500" stroke-width="1.08501" stroke-linecap="round" stroke-linejoin="round"/>
<path d="M511.951 450.431L516.568 450.521L520.79 451.206L535.717 450.342L541.106 450.035" stroke="#F45500" stroke-width="1.08501" stroke-linecap="round" stroke-linejoin="round"/>
<path d="M531.447 528.78L535.508 526.691L566.387 523.757L571.56 517.168" stroke="#F45500" stroke-width="1.08501" stroke-linecap="round" stroke-linejoin="round"/>
<path d="M1007.17 532.524L1006.09 528.329" stroke="#F45500" stroke-width="1.08501" stroke-linecap="round" stroke-linejoin="round"/>
<path d="M917.66 504.871L921.648 505.574" stroke="#F45500" stroke-width="1.08501" stroke-linecap="round" stroke-linejoin="round"/>
<path d="M725.254 523.092L726.727 519.311L728.146 516.827L729.493 516.179L730.804 514.181L732.044 508.366L733.247 502.965L734.397 500.157" stroke="#F45500" stroke-width="1.08501" stroke-linecap="round" stroke-linejoin="round"/>
<path d="M1341.78 441.213L1324.46 438.081L1321.26 440.511" stroke="#F45500" stroke-width="1.08501" stroke-linecap="round" stroke-linejoin="round"/>
<path d="M742.143 490.021H746.112" stroke="#F45500" stroke-width="1.08501" stroke-linecap="round" stroke-linejoin="round"/>
<path d="M825.685 493.765L809.247 494.215L787.189 495.674L764.411 496.97L741.346 497.366L739.999 499.652L735.58 500.426" stroke="#F45500" stroke-width="1.08501" stroke-linecap="round" stroke-linejoin="round"/>
<path d="M490.498 517.456L494.324 517.474" stroke="#F45500" stroke-width="1.08501" stroke-linecap="round" stroke-linejoin="round"/>
<path d="M850.918 518.574L852.409 523.74L853.972 532.832L855.606 538.232L857.349 545.524L859.181 550.997L861.122 554.921L862.81 558.324" stroke="#F45500" stroke-width="1.08501" stroke-linecap="round" stroke-linejoin="round"/>
<path d="M516.09 454.123L516.575 450.522" stroke="#F45500" stroke-width="1.08501" stroke-linecap="round" stroke-linejoin="round"/>
<path d="M733.663 473.331L732.854 474.358L732.01 479.236L731.166 481.163L730.268 484.673" stroke="#F45500" stroke-width="1.08501" stroke-linecap="round" stroke-linejoin="round"/>
<path d="M827.866 492.648L808.969 492.954L787.269 494.394L764.869 495.618L742.199 495.42L723.032 489.948L719.798 489.029L710.961 484.529L697.452 477.67L678.501 467.516L675.142 465.716L652.867 465.914L650.586 464.851L647.604 465.914L645.485 463.394L644.065 463.447L633.916 455.112L633.377 454.662L629.803 451.727L625.06 447.821L621.27 446.939L606.109 443.374L601.564 443.032L594.648 450.647L593.103 452.376L583.816 462.583L583.564 462.871L579.217 467.66L575.463 474.501L571.708 497.941L567.559 499.075L563.392 504.494L559.062 506.15L534.076 506.06L509.16 505.682L484.281 504.494L480.814 504.674" stroke="#F45500" stroke-width="1.08501" stroke-linecap="round" stroke-linejoin="round"/>
<path d="M650.647 464.908L650.504 464.799L647.09 465.231" stroke="#F45500" stroke-width="1.08501" stroke-linecap="round" stroke-linejoin="round"/>
<path d="M471.809 475.348L470.444 475.78L469.438 479.057" stroke="#F45500" stroke-width="1.08501" stroke-linecap="round" stroke-linejoin="round"/>
<path d="M691.193 468.685L699.025 474.104L701.756 475.454L708.007 478.551L710.36 479.721L717.007 483.033L721.605 484.438L724.498 484.653L727.443 485.662L728.629 486.958L731.306 488.848L734.341 489.982L734.467 490.036L743.054 493.223L765.346 494.267L787.351 493.133L808.71 491.981L829.439 490.865L832.529 490.307" stroke="#F45500" stroke-width="1.08501" stroke-linecap="round" stroke-linejoin="round"/>
<path d="M417.776 438.173L415.117 436.121" stroke="#F45500" stroke-width="1.08501" stroke-linecap="round" stroke-linejoin="round"/>
<path d="M1137.22 381.715L1138.14 378.583" stroke="#F45500" stroke-width="1.08501" stroke-linecap="round" stroke-linejoin="round"/>
<path d="M997.043 426.363L1000.29 426.399L1021.8 420.548" stroke="#F45500" stroke-width="1.08501" stroke-linecap="round" stroke-linejoin="round"/>
<path d="M291.658 413.562L293.005 410.7" stroke="#F45500" stroke-width="1.08501" stroke-linecap="round" stroke-linejoin="round"/>
<path d="M1217.23 396.622L1190 376.279L1178.27 377.539L1138.14 378.583L1136.65 381.284" stroke="#F45500" stroke-width="1.08501" stroke-linecap="round" stroke-linejoin="round"/>
<path d="M481.701 505.846L484.288 504.496L489.982 462.135" stroke="#F45500" stroke-width="1.08501" stroke-linecap="round" stroke-linejoin="round"/>
<path d="M741.84 490.577L744.229 491.009L765.768 493.008L787.396 492.522" stroke="#F45500" stroke-width="1.08501" stroke-linecap="round" stroke-linejoin="round"/>
<path d="M475.596 570.53L478.344 570.547L521.222 570.836L564.263 571.123L571.466 566.245L578.22 561.672L584.579 557.352L590.579 553.301L596.238 549.466L601.573 545.829L606.638 542.409L611.452 539.151L645.78 539.331L649.481 536.234L683.054 536.414L716.736 536.576L750.507 536.756L784.368 536.936L818.337 535.046L845.389 526.081L852.413 523.74L886.58 514.253L900.788 510.94L920.854 506.277L921.842 505.612L924.213 503.829" stroke="#F45500" stroke-width="1.08501" stroke-linecap="round" stroke-linejoin="round"/>
<path d="M642.484 518.124L614.066 517.997L585.72 517.872L583.402 519.024" stroke="#F45500" stroke-width="1.08501" stroke-linecap="round" stroke-linejoin="round"/>
<path d="M862.529 468.759L862.224 466.4L861.271 460.315" stroke="#F45500" stroke-width="1.08501" stroke-linecap="round" stroke-linejoin="round"/>
<path d="M741.34 497.365L742.202 495.421L743.047 493.225L743.837 491.263" stroke="#F45500" stroke-width="1.08501" stroke-linecap="round" stroke-linejoin="round"/>
<path d="M631.459 452.108L630.166 450.524L625.819 443.593L624.382 441.324L623.214 439.452L610.622 419.433L605.179 419.523L603.939 420.243L601.64 419.577L596.683 416.876L588.096 412.214L580.102 404.148L568.318 392.267" stroke="#F45500" stroke-width="1.08501" stroke-linecap="round" stroke-linejoin="round"/>
<path d="M519.389 425.714L518.131 426.02L516.479 427.19" stroke="#F45500" stroke-width="1.08501" stroke-linecap="round" stroke-linejoin="round"/>
<path d="M996.193 428.181L997.037 426.363" stroke="#F45500" stroke-width="1.08501" stroke-linecap="round" stroke-linejoin="round"/>
<path d="M448.624 462.135L438.78 468.526L428.361 527.737L427.732 529.591" stroke="#F45500" stroke-width="1.08501" stroke-linecap="round" stroke-linejoin="round"/>
<path d="M1034.94 513.586H1036.86" stroke="#F45500" stroke-width="1.08501" stroke-linecap="round" stroke-linejoin="round"/>
<path d="M597.154 415.111L598.968 415.706L613.268 408.324" stroke="#F45500" stroke-width="1.08501" stroke-linecap="round" stroke-linejoin="round"/>
<path d="M708.529 490.399L706.877 490.831" stroke="#F45500" stroke-width="1.08501" stroke-linecap="round" stroke-linejoin="round"/>
<path d="M879.806 456.067L879.607 454.375" stroke="#F45500" stroke-width="1.08501" stroke-linecap="round" stroke-linejoin="round"/>
<path d="M751.804 477.725L733.248 473.854L714.494 477.473L713.021 477.815" stroke="#F45500" stroke-width="1.08501" stroke-linecap="round" stroke-linejoin="round"/>
<path d="M991.13 585.111L970.904 584.967L923.176 584.625L875.662 584.283L828.329 583.941L781.193 583.599L734.254 583.257L687.496 582.915L640.935 582.573L594.553 582.249L548.369 581.907L502.365 581.565H500.893" stroke="#F45500" stroke-width="1.08501" stroke-linecap="round" stroke-linejoin="round"/>
<path d="M806.418 479.506L806.597 480.748L806.795 482.945L807.01 483.935L807.208 484.907L807.423 485.897L807.639 486.941L807.872 488.004L808.106 489.102L808.34 490.218L808.591 491.388L808.842 492.594L809.112 493.314L809.382 495.115L809.669 496.447L810.118 497.833L810.585 499.291" stroke="#F45500" stroke-width="1.08501" stroke-linecap="round" stroke-linejoin="round"/>
<path d="M887.209 531.373L880.328 534.631L857.353 545.523L820.456 546.567L783.685 546.873L747.04 546.657L710.503 546.459L674.072 546.243L637.769 546.045L633.44 549.681L596.238 549.465L559.161 549.249L552.443 553.066L545.329 557.116L537.785 561.419L497.493 561.149L488.223 565.704L478.344 570.546L477.068 571.177" stroke="#F45500" stroke-width="1.08501" stroke-linecap="round" stroke-linejoin="round"/>
<path d="M838.532 486.907L827.79 487.537L807.761 487.465L787.822 486.367L768.493 485.179L749.451 483.81L730.267 484.674L729.369 485.665H728.021" stroke="#F45500" stroke-width="1.08501" stroke-linecap="round" stroke-linejoin="round"/>
<path d="M713.99 478.445L714.493 477.473L715.553 474.539" stroke="#F45500" stroke-width="1.08501" stroke-linecap="round" stroke-linejoin="round"/>
<path d="M739.053 501.236L739.537 500.444L740.471 498.859" stroke="#F45500" stroke-width="1.08501" stroke-linecap="round" stroke-linejoin="round"/>
<path d="M856.094 559.024L823.904 562.427L782.588 562.966L741.434 562.697L700.406 562.444L659.539 562.174L618.816 561.923L578.219 561.67L537.784 561.418L529.772 565.973L521.221 570.834L512.114 576.018L502.359 581.563L501.73 581.923" stroke="#F45500" stroke-width="1.08501" stroke-linecap="round" stroke-linejoin="round"/>
<path d="M843.65 470.235L844.369 474.862L845.105 479.128L846.093 481.415L846.704 481.703" stroke="#F45500" stroke-width="1.08501" stroke-linecap="round" stroke-linejoin="round"/>
<path d="M824.664 475.438L825.113 476.896L825.562 481.343L826.03 482.999L826.515 484.961L827.017 485.969L827.521 486.995L828.059 488.058L828.598 489.155L829.155 490.29L829.73 491.46L829.837 491.658" stroke="#F45500" stroke-width="1.08501" stroke-linecap="round" stroke-linejoin="round"/>
<path d="M110.902 337.826L149.326 386.235L169.894 412.141L196.965 431.692L219.868 454.916L221.988 457.076L253.765 489.265L276.273 501.885L331.026 566.065L386.03 574.634L441.321 611.126L496.863 608.029L552.694 608.551L608.793 617.787L616.266 609.596L670.354 610.064L724.71 610.19L779.32 610.604L834.198 607.129L884.387 604.897L887.154 604.393" stroke="#F45500" stroke-width="1.08501" stroke-linecap="round" stroke-linejoin="round"/>
<path d="M1344.71 478.012L1340.2 468.308L1336.32 459.937L1333.26 453.402L1332.6 453.312L1331.45 449.477L1321.26 440.512L1302.03 423.571L1288.3 411.509L1245.31 387.026L1217.24 396.621L1202.49 401.662L1159.83 399.123L1159.18 398.637L1140.21 384.019L1137.23 381.715L1136.65 381.283L1117.29 366.358" stroke="#F45500" stroke-width="1.08501" stroke-linecap="round" stroke-linejoin="round"/>
<path d="M1333.78 453.044L1334.84 452.288L1341.78 441.216L1361.61 409.567" stroke="#F45500" stroke-width="1.08501" stroke-linecap="round" stroke-linejoin="round"/>
<path d="M1385.46 503.306L1387.94 500.318L1392.34 495.007L1411.99 471.37" stroke="#F45500" stroke-width="1.08501" stroke-linecap="round" stroke-linejoin="round"/>
<path d="M1011.17 531.048L1006.09 528.33L1000.29 508.491L995.133 506.439L963.985 496.231L929.782 507.627L927.753 508.311L898.293 526.332" stroke="#F45500" stroke-width="1.08501" stroke-linecap="round" stroke-linejoin="round"/>
<path d="M814.058 499.651L813.484 499.939L811.238 501.074" stroke="#F45500" stroke-width="1.08501" stroke-linecap="round" stroke-linejoin="round"/>
<path d="M571.592 498.715L574.969 496.987L595.304 486.545L598.77 460.585L602.111 442.438" stroke="#F45500" stroke-width="1.08501" stroke-linecap="round" stroke-linejoin="round"/>
<path d="M1342.26 465.932L1347.96 459.379L1356.88 449.082" stroke="#F45500" stroke-width="1.08501" stroke-linecap="round" stroke-linejoin="round"/>
<path d="M527.034 522.028L521.914 522.838" stroke="#F45500" stroke-width="1.08501" stroke-linecap="round" stroke-linejoin="round"/>
<path d="M62.9776 585.632L31.3619 544.603L-1.92383 501.397" stroke="#F45500" stroke-width="1.08501" stroke-linecap="round" stroke-linejoin="round"/>
<path d="M140.005 386.989L103.648 440.061L62.9785 585.632L108.39 634.33L139.269 667.472L216.943 698.78L294.706 699.769L373.027 700.669L451.868 701.732L531.284 702.722L611.239 703.73L621.586 687.348L630.801 672.729L639.082 659.623L646.555 647.778L653.345 637.03L715.229 637.624L777.472 638.218L840.038 637.426L902.946 635.986L908.371 641.099L914.371 662.54L921.035 675.97L928.454 690.966L936.771 695.989L946.202 699.121L975.967 687.798L998.313 679.3L1005.01 676.762L1032.59 666.284L1034.49 665.564L1085.9 664.718L1103.04 661.117L1110.01 657.283L1122.33 650.55L1157.31 631.395L1168.73 625.13L1187.06 615.085" stroke="#F45500" stroke-width="1.08501" stroke-linecap="round" stroke-linejoin="round"/>
<path d="M296.975 412.121L296.759 413.058L276.281 501.883" stroke="#F45500" stroke-width="1.08501" stroke-linecap="round" stroke-linejoin="round"/>
<path d="M1108.7 595.768L1041.53 611.665L983.225 628.173" stroke="#F45500" stroke-width="1.08501" stroke-linecap="round" stroke-linejoin="round"/>
<path d="M415.12 436.121L402.294 417.668L397.767 411.169" stroke="#F45500" stroke-width="1.08501" stroke-linecap="round" stroke-linejoin="round"/>
<path d="M401.165 425.282L401.147 425.48L391.949 488.04" stroke="#F45500" stroke-width="1.08501" stroke-linecap="round" stroke-linejoin="round"/>
<path d="M1411.99 641.909L1390.11 633.952L1327.47 615.985L1311.07 620.414" stroke="#F45500" stroke-width="1.08501" stroke-linecap="round" stroke-linejoin="round"/>
<path d="M-1.92383 533.408L17.2254 563.94L98.5991 650.659L100.701 652.352L180.566 716.622L263.144 717.738L346.314 718.836L430.113 719.97L451.867 701.733L471.178 685.567L488.404 671.147L503.871 658.185L517.864 646.483L582.03 647.131L591.783 636.437L653.344 637.032L659.524 627.238L665.164 618.29L670.355 610.063L675.151 602.466L679.57 594.185L683.684 588.964L687.493 582.915L691.049 577.281L694.373 572.005L697.498 567.073L700.408 562.446L703.156 558.089L705.744 553.985L744.401 554.219L783.183 554.237L822.092 553.967L861.127 554.921L900.304 555.155L903.466 559.242L903.843 559.26L906.987 559.349L910.633 564.84L953.745 568.747L997.019 566.893L1006.67 554.327L1020.66 536.108L1029.86 524.136L1035.39 516.935L1035.71 516.413L1036.72 514.703L1037.96 513.605L1039.43 511.678L1040.44 510.364L1047.55 501.219L1053.95 492.973L1065.37 478.265L1084.03 454.231L1127.77 434.501L1171.69 419.432L1215.78 431.962L1229.95 422.924L1259.84 433.906L1276.17 439.901L1292.5 429.424" stroke="#F45500" stroke-width="1.08501" stroke-linecap="round" stroke-linejoin="round"/>
<path d="M-1.92383 404.147L3.24941 403.427L31.5417 399.503L103.647 440.063L176.201 521.759L249.222 643.926L270.562 655.52L322.728 683.82L396.702 684.684L471.178 685.566L546.139 686.467L559.378 671.938L571.288 658.904L582.03 647.13L646.554 647.779L711.455 648.283L776.735 648.931L842.372 649.741L908.37 641.1L929.818 637.715L964.201 632.26L974.763 630.586L983.223 628.173L1009.83 609.667L1029.78 595.768L1093.73 593.104L1115.31 594.202L1135.07 595.211L1136.47 595.265L1146.24 595.768L1158.03 596.363L1190.59 598.235L1212.76 599.495L1222.68 600.053L1238.39 610.477L1258.06 623.493L1270.08 631.468L1298.34 623.853L1303.1 622.557L1311.07 620.415L1322.66 614.618L1349.78 601.026L1359.77 595.499L1363.96 593.933L1376.51 600.395L1386 605.292L1397.33 611.143L1411.99 618.704" stroke="#F45500" stroke-width="1.08501" stroke-linecap="round" stroke-linejoin="round"/>
<path d="M140.002 386.989L161.074 420.817L208.82 497.473L222.167 524.495L278.069 637.732L303.271 648.984L370.257 656.761L390.573 645.185L454.038 645.833L469.63 635.266L530.544 635.842L591.781 636.436L600.656 626.696L659.522 627.237L718.674 627.776L778.133 628.298L837.915 625.904L897.985 626.624L958.396 609.648L982.377 595.821L1000.81 585.182L1010.63 579.511L1019.09 574.632" stroke="#F45500" stroke-width="1.08501" stroke-linecap="round" stroke-linejoin="round"/>
<path d="M570.802 497.619L561.245 484.441L552.498 472.397" stroke="#F45500" stroke-width="1.08501" stroke-linecap="round" stroke-linejoin="round"/>
<path d="M301.083 642.485L294.238 627.11" stroke="#F45500" stroke-width="1.08501" stroke-linecap="round" stroke-linejoin="round"/>
<path d="M597.146 415.11L588.739 405.047L580.943 395.739L562.314 381.805" stroke="#F45500" stroke-width="1.08501" stroke-linecap="round" stroke-linejoin="round"/>
<path d="M458.846 475.619L465.923 479.166L469.39 480.894L472.875 478.23L477.923 473.495L484.192 467.59L489.994 462.135" stroke="#F45500" stroke-width="1.08501" stroke-linecap="round" stroke-linejoin="round"/>
<path d="M550.253 402.42L544.9 405.426L541.109 450.037L544.505 455.347L552.283 467.446" stroke="#F45500" stroke-width="1.08501" stroke-linecap="round" stroke-linejoin="round"/>
<path d="M901.1 495.636L927.632 493.8L936.451 492.45" stroke="#F45500" stroke-width="1.08501" stroke-linecap="round" stroke-linejoin="round"/>
<path d="M613.271 408.324L615.319 414.391L617.313 420.35L619.828 427.767L624.391 441.324" stroke="#F45500" stroke-width="1.08501" stroke-linecap="round" stroke-linejoin="round"/>
<path d="M619.822 427.768L626.325 440.694L630.582 449.137L632.397 452.72" stroke="#F45500" stroke-width="1.08501" stroke-linecap="round" stroke-linejoin="round"/>
<path d="M1103.89 385.351L1103.19 384.613L1097.76 380.473" stroke="#F45500" stroke-width="1.08501" stroke-linecap="round" stroke-linejoin="round"/>
<path d="M1053.54 367.115L1060.63 361.949" stroke="#F45500" stroke-width="1.08501" stroke-linecap="round" stroke-linejoin="round"/>
<path d="M601.031 443.626L602.108 442.438" stroke="#F45500" stroke-width="1.08501" stroke-linecap="round" stroke-linejoin="round"/>
<path d="M670.041 478.986L652.06 465.916L650.677 464.908L650.066 464.512L648.234 463.288L633.037 453.134" stroke="#F45500" stroke-width="1.08501" stroke-linecap="round" stroke-linejoin="round"/>
<path d="M480.973 536.414L478.458 530.672L460.656 489.751L455.411 477.708L454.8 475.295L448.639 462.135" stroke="#F45500" stroke-width="1.08501" stroke-linecap="round" stroke-linejoin="round"/>
<path d="M443.441 458.102L448.632 462.135L454.794 475.295L457.938 480.624L463.524 487.033L478.973 504.766L481.434 507.592L483.014 509.41L484.649 511.301L486.374 513.263L488.152 515.315L490.02 517.457L491.242 518.862L493.684 521.67L494.547 522.246L499.02 525.199L504.93 529.124L514.594 535.532L519.318 538.665L524.294 541.959L529.539 545.434L565.502 545.632L601.573 545.83L637.769 546.046L641.882 542.608L645.78 539.331L680.217 539.529L714.76 539.709L716.736 536.576L718.604 533.624L720.383 530.798L722.071 528.115L753.471 528.259L784.943 528.367L816.271 526.513L816.504 526.477L817.097 526.405L822.217 525.235L839.785 521.202L840.935 520.932L844.383 520.464L850.276 518.79L850.922 518.574L868.526 512.759L872.227 511.535L884.244 507.556L900.268 506.26L917.656 504.873L920.854 506.278L921.788 505.594L924.087 503.667L928.506 499.491L928.542 499.455L936.446 492.452L946.739 483.324L955.218 475.817" stroke="#F45500" stroke-width="1.08501" stroke-linecap="round" stroke-linejoin="round"/>
<path d="M745.568 490.848L749.574 491.172L766.406 491.244L787.477 491.316" stroke="#F45500" stroke-width="1.08501" stroke-linecap="round" stroke-linejoin="round"/>
<path d="M296.977 412.121L303.336 424.454L332.077 480.136L349.573 514.035L402.421 543.146L455.503 581.492L487.747 589.899L503.878 594.094L508.98 594.76L511.405 595.642" stroke="#F45500" stroke-width="1.08501" stroke-linecap="round" stroke-linejoin="round"/>
<path d="M140.455 320.49L196.969 431.693L221.794 456.5L248.792 479.004L256.912 485.755L276.277 501.885" stroke="#F45500" stroke-width="1.08501" stroke-linecap="round" stroke-linejoin="round"/>
<path d="M516.57 450.522L519.731 452.106L528.336 456.445" stroke="#F45500" stroke-width="1.08501" stroke-linecap="round" stroke-linejoin="round"/>
<path d="M749.586 491.173L766.005 492.452" stroke="#F45500" stroke-width="1.08501" stroke-linecap="round" stroke-linejoin="round"/>
<path d="M484.178 467.589L486.351 453.097L486.459 452.431" stroke="#F45500" stroke-width="1.08501" stroke-linecap="round" stroke-linejoin="round"/>
<path d="M658.651 478.803L653.586 473.024L649.005 467.804L648.106 466.669L647.549 465.967L646.185 464.887L644.801 463.429L622.114 464.365L598.779 460.585L583.294 469.838L575.481 474.501L568.26 473.834L552.506 472.395L547.943 466.129L543.506 462.151L537.542 459.9L528.345 456.444L519.471 453.095" stroke="#F45500" stroke-width="1.08501" stroke-linecap="round" stroke-linejoin="round"/>
<path d="M643.744 477.886L645.378 464.51" stroke="#F45500" stroke-width="1.08501" stroke-linecap="round" stroke-linejoin="round"/>
<path d="M526.446 528.565L525.853 528.313L522.727 527.629L518.236 533.354" stroke="#F45500" stroke-width="1.08501" stroke-linecap="round" stroke-linejoin="round"/>
<path d="M822.924 495.169L826.301 493.783L828.923 492.667L829.929 491.857L830.235 491.461L832.804 490.309L834.312 489.606L835.067 489.174L836.702 488.256" stroke="#F45500" stroke-width="1.08501" stroke-linecap="round" stroke-linejoin="round"/>
<path d="M514.581 454.591L511.959 450.432L509.336 446.238L507.684 443.627" stroke="#F45500" stroke-width="1.08501" stroke-linecap="round" stroke-linejoin="round"/>
<path d="M265.468 420.621L263.133 419.666L254.133 416.048L241.434 421.539" stroke="#F45500" stroke-width="1.08501" stroke-linecap="round" stroke-linejoin="round"/>
<path d="M505.456 444.563L500.534 442.438L499.474 442.402L480.307 441.898L478.636 444.311L467.157 459.127L456.703 472.791" stroke="#F45500" stroke-width="1.08501" stroke-linecap="round" stroke-linejoin="round"/>
<path d="M750.836 505.035L760.321 507.843" stroke="#F45500" stroke-width="1.08501" stroke-linecap="round" stroke-linejoin="round"/>
<path d="M657.733 478.806L653.439 473.405L649.002 467.806" stroke="#F45500" stroke-width="1.08501" stroke-linecap="round" stroke-linejoin="round"/>
<path d="M1026.12 509.14L1025.92 508.762L1022.74 502.335L1018.31 465.843L1004.78 450.739L996.966 442.025L992.313 436.823L985.452 432.808L970.865 424.293" stroke="#F45500" stroke-width="1.08501" stroke-linecap="round" stroke-linejoin="round"/>
<path d="M-1.92383 670.229L51.9838 728.414L139.304 729.17L180.566 716.622L216.942 698.782L249.222 643.927L278.071 637.734L303.274 648.986L347.751 669.581L417.862 670.355L436.868 657.465L454.041 645.835L517.864 646.484L530.546 635.844L542.115 626.159L552.695 608.552L562.431 607.003L571.395 601.639L579.694 594.69L587.4 588.245L594.55 582.25L601.232 576.651L607.466 571.412L613.322 566.515L618.819 561.925L623.974 557.604L628.842 553.535L667.229 553.752L705.744 553.985L708.186 550.115L710.504 546.46L712.695 542.986L714.761 539.709L749.412 539.889L784.154 540.069L819.002 539.619L853.977 532.832L878.766 533.21L887.21 531.374L888.682 530.672L894.359 527.989L895.832 527.666L896.298 527.557L898.149 526.099L912.753 513.443L921.142 506.404L921.843 505.612L922.83 504.532L924.088 503.668L928.867 501.489L951.446 490.166L959.494 486.133L972.445 493.406L994.882 505.972L1000.29 508.492L1001.15 508.763L1027.11 514.505L1028.99 514.919L1035.64 516.396" stroke="#F45500" stroke-width="1.08501" stroke-linecap="round" stroke-linejoin="round"/>
<path d="M1270.08 631.468L1287.69 643.134L1353.06 643.746L1381.22 655.177L1411.99 655.484" stroke="#F45500" stroke-width="1.08501" stroke-linecap="round" stroke-linejoin="round"/>
<path d="M1006.09 528.33L997.05 526.242L968.722 519.671L931.484 519.617L896.293 527.556" stroke="#F45500" stroke-width="1.08501" stroke-linecap="round" stroke-linejoin="round"/>
<path d="M1359.81 474.754L1344.7 478.013L1336.13 479.867L1320.38 483.269L1310.5 485.394L1261.37 492.091L1212.46 462.656L1209.49 461.126L1201.84 457.129L1175.09 443.213L1163.74 437.291L1150.93 442.781L1132.05 463.377L1104.1 493.855L1115.24 540.932L1127.17 585.435L1136.47 595.265" stroke="#F45500" stroke-width="1.08501" stroke-linecap="round" stroke-linejoin="round"/>
</g>
<defs>
<linearGradient id="paint0_linear_130_529" x1="1402" y1="632.543" x2="13.0302" y2="-93.7725" gradientUnits="userSpaceOnUse">
<stop stop-color="#F45500"/>
<stop offset="1" stop-color="#F45500"/>
</linearGradient>
<linearGradient id="paint1_linear_130_529" x1="701" y1="0" x2="701" y2="550.5" gradientUnits="userSpaceOnUse">
<stop stop-color="#F45500"/>
<stop offset="0.786485" stop-opacity="0"/>
</linearGradient>
</defs>
</svg>
