<svg width="50" height="51" viewBox="0 0 50 51" fill="none" xmlns="http://www.w3.org/2000/svg">
<g clip-path="url(#clip0_130_1269)">
<path d="M16.739 32.9062L7.39925 42.246C6.43848 41.5623 5.25588 41.2645 4.08589 41.4118C2.91591 41.559 1.84395 42.1405 1.08253 43.0409C0.321105 43.9413 -0.0741928 45.095 -0.0250023 46.2732C0.0241882 47.4514 0.514276 48.5681 1.34811 49.4019C2.18194 50.2357 3.29863 50.7258 4.47682 50.775C5.65501 50.8242 6.80867 50.4289 7.7091 49.6675C8.60953 48.9061 9.191 47.8341 9.33823 46.6641C9.48546 45.4941 9.1877 44.3115 8.50399 43.3508L17.8438 34.011C17.4499 33.6693 17.0807 33.3001 16.739 32.9062ZM4.6875 49.1875C4.06943 49.1875 3.46524 49.0042 2.95134 48.6608C2.43744 48.3175 2.0369 47.8294 1.80037 47.2584C1.56385 46.6874 1.50196 46.059 1.62254 45.4529C1.74312 44.8467 2.04075 44.2898 2.47779 43.8528C2.91483 43.4158 3.47165 43.1181 4.07784 42.9976C4.68403 42.877 5.31236 42.9389 5.88338 43.1754C6.4544 43.4119 6.94246 43.8124 7.28584 44.3263C7.62922 44.8403 7.8125 45.4444 7.8125 46.0625C7.81155 46.891 7.482 47.6853 6.89616 48.2712C6.31031 48.857 5.51601 49.1866 4.6875 49.1875ZM45.3125 0.750006C44.4521 0.748633 43.6079 0.984489 42.8728 1.43165C42.1377 1.87882 41.5401 2.51998 41.1457 3.28467C40.7513 4.04937 40.5753 4.908 40.6371 5.76621C40.6989 6.62441 40.9961 7.44897 41.496 8.14926L32.1562 17.489C32.5501 17.8307 32.9193 18.1999 33.261 18.5938L42.6007 9.25399C43.2018 9.68117 43.8952 9.96044 44.6245 10.0691C45.3539 10.1777 46.0986 10.1127 46.7981 9.87927C47.4975 9.64583 48.132 9.25058 48.6499 8.72568C49.1678 8.20077 49.5545 7.56103 49.7785 6.85849C50.0026 6.15595 50.0576 5.41045 49.9392 4.68263C49.8207 3.95481 49.5322 3.26522 49.097 2.66996C48.6618 2.07469 48.0922 1.59056 47.4346 1.25694C46.777 0.923318 46.0499 0.749631 45.3125 0.750006ZM45.3125 8.56251C44.6944 8.56251 44.0902 8.37923 43.5763 8.03585C43.0624 7.69247 42.6619 7.20441 42.4254 6.63339C42.1889 6.06237 42.127 5.43404 42.2475 4.82785C42.3681 4.22166 42.6657 3.66484 43.1028 3.2278C43.5398 2.79076 44.0966 2.49313 44.7028 2.37255C45.309 2.25197 45.9374 2.31386 46.5084 2.55038C47.0794 2.78691 47.5675 3.18745 47.9108 3.70135C48.2542 4.21525 48.4375 4.81944 48.4375 5.43751C48.4366 6.26602 48.107 7.06032 47.5212 7.64617C46.9353 8.23201 46.141 8.56156 45.3125 8.56251ZM41.7969 38.25C40.9275 38.2494 40.0786 38.5143 39.3638 39.009L33.261 32.9062C32.9193 33.3001 32.5501 33.6693 32.1562 34.011L38.259 40.1138C37.7158 40.905 37.4533 41.8555 37.5134 42.8134C37.5735 43.7713 37.9528 44.6815 38.5907 45.3986C39.2286 46.1158 40.0884 46.5985 41.0328 46.7698C41.9772 46.9412 42.9518 46.7912 43.8009 46.3438C44.6501 45.8965 45.3249 45.1775 45.7177 44.3018C46.1105 43.426 46.1986 42.4439 45.9679 41.5123C45.7372 40.5806 45.201 39.7531 44.445 39.1618C43.689 38.5704 42.7567 38.2495 41.7969 38.25ZM41.7969 45.2813C41.2561 45.2813 40.7274 45.1209 40.2777 44.8204C39.8281 44.52 39.4776 44.0929 39.2706 43.5933C39.0637 43.0936 39.0095 42.5438 39.115 42.0134C39.2205 41.483 39.481 40.9958 39.8634 40.6134C40.2458 40.231 40.733 39.9706 41.2634 39.865C41.7938 39.7595 42.3436 39.8137 42.8433 40.0206C43.3429 40.2276 43.77 40.5781 44.0704 41.0277C44.3709 41.4774 44.5312 42.0061 44.5312 42.5469C44.5304 43.2718 44.242 43.9668 43.7294 44.4794C43.2168 44.9921 42.5218 45.2804 41.7969 45.2813ZM8.98437 14.0313C9.85376 14.0318 10.7026 13.767 11.4175 13.2722L16.739 18.5938C17.0807 18.1999 17.4499 17.8307 17.8438 17.489L12.5222 12.1675C13.0655 11.3762 13.328 10.4258 13.2679 9.46786C13.2077 8.50994 12.8284 7.59978 12.1905 6.88265C11.5526 6.16551 10.6928 5.68275 9.74845 5.51143C8.80406 5.3401 7.8295 5.49009 6.98033 5.93744C6.13115 6.38479 5.45632 7.10372 5.06354 7.97948C4.67077 8.85523 4.58269 9.83732 4.81337 10.769C5.04406 11.7007 5.5802 12.5282 6.33622 13.1195C7.09225 13.7108 8.02457 14.0318 8.98437 14.0313ZM8.98437 7.00001C9.52518 7.00001 10.0538 7.16037 10.5035 7.46083C10.9532 7.76129 11.3036 8.18834 11.5106 8.68798C11.7176 9.18762 11.7717 9.73741 11.6662 10.2678C11.5607 10.7982 11.3003 11.2855 10.9179 11.6679C10.5355 12.0503 10.0482 12.3107 9.51782 12.4162C8.98741 12.5217 8.43761 12.4676 7.93797 12.2606C7.43833 12.0537 7.01128 11.7032 6.71082 11.2535C6.41037 10.8039 6.25 10.2752 6.25 9.73438C6.25084 9.00944 6.5392 8.31443 7.05181 7.80182C7.56442 7.28921 8.25943 7.00085 8.98437 7.00001ZM24.2187 9.64385V14.8435C24.4771 14.8252 24.737 14.8125 25 14.8125C25.263 14.8125 25.5229 14.8252 25.7812 14.8435V9.64385C26.624 9.45178 27.3664 8.95599 27.8667 8.25118C28.3671 7.54638 28.5902 6.68196 28.4936 5.82304C28.3969 4.96413 27.9873 4.17091 27.3428 3.59491C26.6984 3.01892 25.8643 2.70051 25 2.70051C24.1357 2.70051 23.3016 3.01892 22.6572 3.59491C22.0127 4.17091 21.6031 4.96413 21.5064 5.82304C21.4098 6.68196 21.6329 7.54638 22.1333 8.25118C22.6336 8.95599 23.376 9.45178 24.2187 9.64385ZM25 4.26563C25.3863 4.26563 25.7639 4.38018 26.0851 4.59479C26.4063 4.8094 26.6566 5.11444 26.8045 5.47133C26.9523 5.82821 26.991 6.22092 26.9156 6.59979C26.8402 6.97866 26.6542 7.32667 26.3811 7.59982C26.1079 7.87297 25.7599 8.05899 25.381 8.13435C25.0022 8.20971 24.6095 8.17104 24.2526 8.02321C23.8957 7.87538 23.5906 7.62504 23.376 7.30385C23.1614 6.98266 23.0469 6.60505 23.0469 6.21876C23.0475 5.70094 23.2535 5.20451 23.6196 4.83836C23.9858 4.47221 24.4822 4.26624 25 4.26563ZM43.75 21.8438C42.8499 21.8449 41.9778 22.1564 41.2806 22.7257C40.5833 23.2949 40.1037 24.0871 39.9225 24.9688H35.9065C35.9248 25.2271 35.9375 25.4871 35.9375 25.75C35.9375 26.013 35.9248 26.2729 35.9065 26.5313H39.9225C40.0703 27.2555 40.4205 27.9229 40.9325 28.456C41.4445 28.9891 42.0972 29.366 42.8149 29.5429C43.5325 29.7198 44.2857 29.6895 44.9868 29.4555C45.6879 29.2214 46.3082 28.7933 46.7757 28.2208C47.2432 27.6482 47.5386 26.9548 47.6278 26.2211C47.7169 25.4873 47.596 24.7434 47.2791 24.0756C46.9623 23.4078 46.4625 22.8436 45.8378 22.4486C45.2131 22.0535 44.4891 21.8438 43.75 21.8438ZM43.75 28.0938C43.2864 28.0938 42.8333 27.9563 42.4479 27.6988C42.0625 27.4412 41.7621 27.0752 41.5847 26.6469C41.4073 26.2187 41.3608 25.7474 41.4513 25.2928C41.5417 24.8381 41.7649 24.4205 42.0927 24.0927C42.4205 23.7649 42.8381 23.5417 43.2928 23.4513C43.7474 23.3609 44.2186 23.4073 44.6469 23.5847C45.0752 23.7621 45.4412 24.0625 45.6988 24.4479C45.9563 24.8333 46.0937 25.2865 46.0937 25.75C46.0931 26.3714 45.8459 26.9671 45.4065 27.4065C44.9671 27.8459 44.3714 28.0931 43.75 28.0938ZM7.03125 28.875C7.72331 28.8737 8.39541 28.643 8.94228 28.2189C9.48916 27.7947 9.87993 27.2012 10.0534 26.5313H14.0935C14.0752 26.2729 14.0625 26.013 14.0625 25.75C14.0625 25.4871 14.0752 25.2271 14.0935 24.9688H10.0534C9.90698 24.4032 9.60492 23.8901 9.1815 23.4876C8.75808 23.0852 8.23028 22.8095 7.65806 22.692C7.08583 22.5745 6.49211 22.6198 5.94434 22.8227C5.39657 23.0257 4.9167 23.3783 4.55924 23.8403C4.20178 24.3023 3.98105 24.8554 3.92213 25.4365C3.86321 26.0177 3.96846 26.6038 4.22593 27.1282C4.48339 27.6525 4.88275 28.0942 5.37864 28.403C5.87453 28.7118 6.44708 28.8753 7.03125 28.875ZM7.03125 24.1875C7.34028 24.1875 7.64237 24.2791 7.89933 24.4508C8.15628 24.6225 8.35655 24.8666 8.47481 25.1521C8.59307 25.4376 8.62401 25.7517 8.56372 26.0548C8.50344 26.3579 8.35462 26.6363 8.1361 26.8549C7.91758 27.0734 7.63917 27.2222 7.33608 27.2825C7.03298 27.3428 6.71881 27.3118 6.4333 27.1936C6.1478 27.0753 5.90377 26.875 5.73208 26.6181C5.56039 26.3611 5.46875 26.059 5.46875 25.75C5.46919 25.3357 5.63395 24.9386 5.92688 24.6456C6.21981 24.3527 6.61698 24.1879 7.03125 24.1875ZM25.7812 41.8562V36.6565C25.5229 36.6748 25.263 36.6875 25 36.6875C24.737 36.6875 24.4771 36.6748 24.2187 36.6565V41.8562C23.376 42.0482 22.6336 42.544 22.1333 43.2488C21.6329 43.9536 21.4098 44.8181 21.5064 45.677C21.6031 46.5359 22.0127 47.3291 22.6572 47.9051C23.3016 48.4811 24.1357 48.7995 25 48.7995C25.8643 48.7995 26.6984 48.4811 27.3428 47.9051C27.9873 47.3291 28.3969 46.5359 28.4936 45.677C28.5902 44.8181 28.3671 43.9536 27.8667 43.2488C27.3664 42.544 26.624 42.0482 25.7812 41.8562ZM25 47.2344C24.6137 47.2344 24.2361 47.1198 23.9149 46.9052C23.5937 46.6906 23.3434 46.3856 23.1955 46.0287C23.0477 45.6718 23.009 45.2791 23.0844 44.9002C23.1598 44.5214 23.3458 44.1733 23.6189 43.9002C23.8921 43.627 24.2401 43.441 24.619 43.3657C24.9978 43.2903 25.3905 43.329 25.7474 43.4768C26.1043 43.6246 26.4093 43.875 26.624 44.1962C26.8386 44.5173 26.9531 44.895 26.9531 45.2813C26.9525 45.7991 26.7465 46.2955 26.3804 46.6617C26.0142 47.0278 25.5178 47.2338 25 47.2344Z" fill="#F45500"/>
<path d="M25 16.375C23.1458 16.375 21.3332 16.9248 19.7915 17.955C18.2498 18.9851 17.0482 20.4493 16.3386 22.1623C15.6291 23.8754 15.4434 25.7604 15.8051 27.579C16.1669 29.3975 17.0598 31.068 18.3709 32.3791C19.682 33.6902 21.3525 34.5831 23.171 34.9449C24.9896 35.3066 26.8746 35.1209 28.5877 34.4114C30.3007 33.7018 31.7649 32.5002 32.795 30.9585C33.8252 29.4168 34.375 27.6042 34.375 25.75C34.3722 23.2645 33.3836 20.8815 31.626 19.124C29.8685 17.3664 27.4855 16.3778 25 16.375ZM25 33.5625C23.4548 33.5625 21.9444 33.1043 20.6596 32.2459C19.3749 31.3874 18.3735 30.1673 17.7822 28.7397C17.1909 27.3122 17.0362 25.7413 17.3376 24.2259C17.6391 22.7104 18.3831 21.3183 19.4757 20.2257C20.5683 19.1331 21.9604 18.3891 23.4759 18.0876C24.9913 17.7862 26.5622 17.9409 27.9897 18.5322C29.4173 19.1235 30.6374 20.1248 31.4959 21.4096C32.3543 22.6944 32.8125 24.2048 32.8125 25.75C32.8102 27.8213 31.9863 29.8071 30.5217 31.2717C29.0571 32.7363 27.0713 33.5602 25 33.5625Z" fill="#F45500"/>
</g>
<defs>
<clipPath id="clip0_130_1269">
<rect width="50" height="50" fill="white" transform="translate(0 0.75)"/>
</clipPath>
</defs>
</svg>
