<svg width="40" height="40" viewBox="0 0 40 40" fill="none" xmlns="http://www.w3.org/2000/svg">
<path d="M8.75 13.125C9.73891 13.125 10.7056 12.8318 11.5279 12.2824C12.3501 11.7329 12.991 10.9521 13.3694 10.0384C13.7478 9.12479 13.8469 8.11946 13.6539 7.14955C13.461 6.17965 12.9848 5.28873 12.2855 4.58947C11.5863 3.89021 10.6954 3.414 9.72545 3.22108C8.75555 3.02815 7.75022 3.12717 6.83659 3.5056C5.92295 3.88404 5.14206 4.52491 4.59265 5.34715C4.04325 6.1694 3.75 7.1361 3.75 8.125C3.75149 9.45063 4.27875 10.7215 5.21611 11.6589C6.15347 12.5963 7.42438 13.1235 8.75 13.125ZM8.75 4.375C9.49168 4.375 10.2167 4.59494 10.8334 5.00699C11.4501 5.41905 11.9307 6.00472 12.2146 6.68994C12.4984 7.37516 12.5726 8.12916 12.4279 8.85659C12.2833 9.58402 11.9261 10.2522 11.4017 10.7767C10.8772 11.3011 10.209 11.6583 9.48159 11.8029C8.75416 11.9476 8.00016 11.8734 7.31494 11.5896C6.62972 11.3057 6.04405 10.8251 5.63199 10.2084C5.21994 9.59171 5 8.86668 5 8.125C5.00108 7.13077 5.39651 6.17757 6.09954 5.47454C6.80257 4.77151 7.75577 4.37608 8.75 4.375ZM31.25 13.125C32.2389 13.125 33.2056 12.8318 34.0279 12.2824C34.8501 11.7329 35.491 10.9521 35.8694 10.0384C36.2478 9.12479 36.3469 8.11946 36.1539 7.14955C35.961 6.17965 35.4848 5.28873 34.7855 4.58947C34.0863 3.89021 33.1954 3.414 32.2255 3.22108C31.2555 3.02815 30.2502 3.12717 29.3366 3.5056C28.423 3.88404 27.6421 4.52491 27.0927 5.34715C26.5432 6.1694 26.25 7.1361 26.25 8.125C26.2515 9.45063 26.7788 10.7215 27.7161 11.6589C28.6535 12.5963 29.9244 13.1235 31.25 13.125ZM31.25 4.375C31.9917 4.375 32.7167 4.59494 33.3334 5.00699C33.9501 5.41905 34.4307 6.00472 34.7146 6.68994C34.9984 7.37516 35.0726 8.12916 34.9279 8.85659C34.7833 9.58402 34.4261 10.2522 33.9017 10.7767C33.3772 11.3011 32.709 11.6583 31.9816 11.8029C31.2542 11.9476 30.5002 11.8734 29.8149 11.5896C29.1297 11.3057 28.544 10.8251 28.132 10.2084C27.7199 9.59171 27.5 8.86668 27.5 8.125C27.5011 7.13077 27.8965 6.17757 28.5995 5.47454C29.3026 4.77151 30.2558 4.37608 31.25 4.375ZM20 13.125C20.9889 13.125 21.9556 12.8318 22.7779 12.2824C23.6001 11.7329 24.241 10.9521 24.6194 10.0384C24.9978 9.12479 25.0969 8.11946 24.9039 7.14955C24.711 6.17965 24.2348 5.28873 23.5355 4.58947C22.8363 3.89021 21.9454 3.414 20.9755 3.22108C20.0055 3.02815 19.0002 3.12717 18.0866 3.5056C17.173 3.88404 16.3921 4.52491 15.8427 5.34715C15.2932 6.1694 15 7.1361 15 8.125C15.0015 9.45063 15.5288 10.7215 16.4661 11.6589C17.4035 12.5963 18.6744 13.1235 20 13.125ZM20 4.375C20.7417 4.375 21.4667 4.59494 22.0834 5.00699C22.7001 5.41905 23.1807 6.00472 23.4646 6.68994C23.7484 7.37516 23.8226 8.12916 23.6779 8.85659C23.5333 9.58402 23.1761 10.2522 22.6517 10.7767C22.1272 11.3011 21.459 11.6583 20.7316 11.8029C20.0042 11.9476 19.2502 11.8734 18.5649 11.5896C17.8797 11.3057 17.294 10.8251 16.882 10.2084C16.4699 9.59171 16.25 8.86668 16.25 8.125C16.2511 7.13077 16.6465 6.17757 17.3495 5.47454C18.0526 4.77151 19.0058 4.37608 20 4.375ZM8.75 16.25C7.7611 16.25 6.7944 16.5432 5.97215 17.0927C5.14991 17.6421 4.50904 18.423 4.1306 19.3366C3.75217 20.2502 3.65315 21.2555 3.84608 22.2255C4.039 23.1954 4.51521 24.0863 5.21447 24.7855C5.91373 25.4848 6.80465 25.961 7.77455 26.1539C8.74446 26.3469 9.74979 26.2478 10.6634 25.8694C11.5771 25.491 12.3579 24.8501 12.9074 24.0279C13.4568 23.2056 13.75 22.2389 13.75 21.25C13.7485 19.9244 13.2213 18.6535 12.2839 17.7161C11.3465 16.7788 10.0756 16.2515 8.75 16.25ZM8.75 25C8.00832 25 7.2833 24.7801 6.66661 24.368C6.04993 23.956 5.56928 23.3703 5.28545 22.6851C5.00163 21.9998 4.92736 21.2458 5.07206 20.5184C5.21675 19.791 5.5739 19.1228 6.09835 18.5984C6.6228 18.0739 7.29098 17.7168 8.01841 17.5721C8.74584 17.4274 9.49984 17.5016 10.1851 17.7855C10.8703 18.0693 11.456 18.5499 11.868 19.1666C12.2801 19.7833 12.5 20.5083 12.5 21.25C12.4989 22.2442 12.1035 23.1974 11.4005 23.9005C10.6974 24.6035 9.74423 24.9989 8.75 25ZM31.25 26.25C32.2389 26.25 33.2056 25.9568 34.0279 25.4074C34.8501 24.8579 35.491 24.077 35.8694 23.1634C36.2478 22.2498 36.3469 21.2445 36.1539 20.2746C35.961 19.3046 35.4848 18.4137 34.7855 17.7145C34.0863 17.0152 33.1954 16.539 32.2255 16.3461C31.2555 16.1531 30.2502 16.2522 29.3366 16.6306C28.423 17.009 27.6421 17.6499 27.0927 18.4722C26.5432 19.2944 26.25 20.2611 26.25 21.25C26.2515 22.5756 26.7788 23.8465 27.7161 24.7839C28.6535 25.7213 29.9244 26.2485 31.25 26.25ZM31.25 17.5C31.9917 17.5 32.7167 17.7199 33.3334 18.132C33.9501 18.544 34.4307 19.1297 34.7146 19.8149C34.9984 20.5002 35.0726 21.2542 34.9279 21.9816C34.7833 22.709 34.4261 23.3772 33.9017 23.9017C33.3772 24.4261 32.709 24.7833 31.9816 24.9279C31.2542 25.0726 30.5002 24.9984 29.8149 24.7146C29.1297 24.4307 28.544 23.9501 28.132 23.3334C27.7199 22.7167 27.5 21.9917 27.5 21.25C27.5011 20.2558 27.8965 19.3026 28.5995 18.5995C29.3026 17.8965 30.2558 17.5011 31.25 17.5ZM20 26.25C20.9889 26.25 21.9556 25.9568 22.7779 25.4074C23.6001 24.8579 24.241 24.077 24.6194 23.1634C24.9978 22.2498 25.0969 21.2445 24.9039 20.2746C24.711 19.3046 24.2348 18.4137 23.5355 17.7145C22.8363 17.0152 21.9454 16.539 20.9755 16.3461C20.0055 16.1531 19.0002 16.2522 18.0866 16.6306C17.173 17.009 16.3921 17.6499 15.8427 18.4722C15.2932 19.2944 15 20.2611 15 21.25C15.0015 22.5756 15.5288 23.8465 16.4661 24.7839C17.4035 25.7213 18.6744 26.2485 20 26.25ZM20 17.5C20.7417 17.5 21.4667 17.7199 22.0834 18.132C22.7001 18.544 23.1807 19.1297 23.4646 19.8149C23.7484 20.5002 23.8226 21.2542 23.6779 21.9816C23.5333 22.709 23.1761 23.3772 22.6517 23.9017C22.1272 24.4261 21.459 24.7833 20.7316 24.9279C20.0042 25.0726 19.2502 24.9984 18.5649 24.7146C17.8797 24.4307 17.294 23.9501 16.882 23.3334C16.4699 22.7167 16.25 21.9917 16.25 21.25C16.2511 20.2558 16.6465 19.3026 17.3495 18.5995C18.0526 17.8965 19.0058 17.5011 20 17.5Z" fill="white"/>
<path d="M1.88281 23.75H3.02562C2.84848 23.3487 2.7145 22.9296 2.62594 22.5H1.88281C1.72122 22.5057 1.56392 22.4472 1.44533 22.3373C1.32674 22.2274 1.25651 22.075 1.25 21.9134V16.5897C1.25 14.589 2.79562 13.1834 5.02281 13.1303C4.59025 12.8085 4.20081 12.4325 3.86406 12.0115C1.565 12.4959 0 14.2703 0 16.5897V21.9134C0.00683634 22.4064 0.208871 22.8766 0.561812 23.2209C0.914753 23.5651 1.3898 23.7554 1.88281 23.75ZM15.1141 12.0115C13.1631 12.4225 11.745 13.7644 11.3587 15.5781C11.7682 15.7674 12.156 16.0006 12.5153 16.2734C12.67 14.4428 14.1653 13.1806 16.2728 13.13C15.8402 12.8082 15.4508 12.4325 15.1141 12.0115ZM1.88281 35.625C1.72122 35.6307 1.56392 35.5722 1.44533 35.4623C1.32674 35.3524 1.25651 35.2 1.25 35.0384V29.7147C1.25 27.714 2.79562 26.3084 5.02281 26.2553C4.59025 25.9335 4.20081 25.5575 3.86406 25.1365C1.565 25.6209 0 27.3953 0 29.7147V35.0384C0.00683634 35.5314 0.208871 36.0016 0.561812 36.3459C0.914753 36.6901 1.3898 36.8804 1.88281 36.875H10.6209C10.3409 36.5065 10.1485 36.079 10.0584 35.625H1.88281ZM36.1359 12.0115C35.7992 12.4325 35.4098 12.8085 34.9772 13.1303C37.2044 13.1834 38.75 14.589 38.75 16.5897V21.9134C38.7435 22.075 38.6733 22.2274 38.5547 22.3373C38.4361 22.4472 38.2788 22.5057 38.1172 22.5H37.3741C37.2855 22.9296 37.1515 23.3487 36.9744 23.75H38.1172C38.6102 23.7554 39.0852 23.5651 39.4382 23.2209C39.7911 22.8766 39.9932 22.4064 40 21.9134V16.5897C40 14.2703 38.435 12.4959 36.1359 12.0115ZM36.1359 25.1365C35.7992 25.5575 35.4098 25.9335 34.9772 26.2553C37.2044 26.3084 38.75 27.714 38.75 29.7147V35.0384C38.7435 35.2 38.6733 35.3524 38.5547 35.4623C38.4361 35.5722 38.2788 35.6307 38.1172 35.625H29.9416C29.8515 36.079 29.6591 36.5065 29.3791 36.875H38.1172C38.6102 36.8804 39.0852 36.6901 39.4382 36.3459C39.7911 36.0016 39.9932 35.5314 40 35.0384V29.7147C40 27.3953 38.435 25.6209 36.1359 25.1365ZM24.8859 25.1365C24.5492 25.5575 24.1598 25.9335 23.7272 26.2553C25.9544 26.3081 27.5 27.7137 27.5 29.7144V35.0381C27.4936 35.1997 27.4234 35.3522 27.3048 35.4622C27.1862 35.5722 27.0288 35.6307 26.8672 35.625H13.1328C12.9712 35.6307 12.8139 35.5722 12.6953 35.4623C12.5767 35.3524 12.5065 35.2 12.5 35.0384V29.7147C12.5 27.714 14.0456 26.3084 16.2728 26.2553C15.8402 25.9335 15.4508 25.5575 15.1141 25.1365C12.815 25.6209 11.25 27.3953 11.25 29.7147V35.0384C11.2568 35.5314 11.4589 36.0016 11.8118 36.3459C12.1648 36.6901 12.6398 36.8804 13.1328 36.875H26.8672C27.3602 36.8804 27.8352 36.6901 28.1882 36.3459C28.5411 36.0016 28.7432 35.5314 28.75 35.0384V29.7147C28.75 27.3953 27.185 25.6209 24.8859 25.1365ZM27.4847 16.2734C27.8439 16.0006 28.2316 15.7675 28.6409 15.5781C28.255 13.7644 26.8369 12.4225 24.8859 12.0115C24.5492 12.4325 24.1598 12.8085 23.7272 13.1303C25.835 13.1806 27.33 14.4428 27.4847 16.2734Z" fill="white"/>
</svg>
