<svg width="50" height="51" viewBox="0 0 50 51" fill="none" xmlns="http://www.w3.org/2000/svg">
<path d="M7.87021 40.6206C8.07492 40.8556 8.43286 40.8838 8.67218 40.6765C8.90892 40.4708 8.93407 40.112 8.7284 39.8749C5.32671 35.9612 3.45349 30.9475 3.45349 25.7572C3.45349 13.872 13.1192 4.20259 25 4.20259C29.7713 4.20259 34.386 5.78655 38.1363 8.67952L32.6379 9.56962C32.3287 9.61955 32.1178 9.91141 32.1681 10.221C32.2133 10.5003 32.4544 10.6986 32.7282 10.6986C32.7585 10.6986 32.7888 10.6964 32.8199 10.6912L39.4702 9.61479C39.8584 9.63386 40.1166 9.30686 40.059 8.9441L38.9641 2.17437C38.9145 1.86439 38.6253 1.65539 38.3123 1.70422C38.0031 1.75416 37.7922 2.04602 37.8425 2.35563L38.7043 7.68478C34.7792 4.69956 29.9701 3.06623 25 3.06623C12.4926 3.06623 2.31712 13.2454 2.31712 25.7572C2.31712 31.2216 4.28948 36.5002 7.87021 40.6206ZM42.1305 10.8865C41.9241 10.6483 41.5661 10.6246 41.3286 10.8303C41.0918 11.0359 41.0667 11.3948 41.2724 11.6315C44.6733 15.5455 46.5465 20.5622 46.5465 25.7572C46.5465 37.638 36.8808 47.3038 25 47.3038C20.23 47.3038 15.6117 45.718 11.8575 42.8222L17.371 41.9301C17.6802 41.8801 17.8911 41.5883 17.8408 41.2787C17.7905 40.9683 17.5005 40.7575 17.189 40.8085L10.4845 41.8932C10.4666 41.8941 10.4502 41.8992 10.4324 41.9016C10.3564 41.9538 9.86221 42.0218 9.94911 42.5552L11.0448 49.3253C11.0899 49.6046 11.3311 49.8029 11.6048 49.8029C11.6352 49.8029 11.6655 49.8007 11.6966 49.7955C12.0058 49.7455 12.2167 49.4537 12.1663 49.1441L11.3065 43.8299C15.2335 46.8097 20.0387 48.4401 25 48.4401C37.5074 48.4401 47.6829 38.2646 47.6829 25.7572C47.6829 20.2881 45.7113 15.0069 42.1305 10.8865Z" fill="#F45500"/>
<path d="M40.7745 26.5381C41.0548 26.4982 41.2627 26.2585 41.2627 25.9755V22.4144C41.2627 22.1314 41.0548 21.8917 40.7745 21.8518L37.4053 21.372C37.0842 19.9582 36.5338 18.6309 35.7659 17.4173L37.8063 14.6944C37.9757 14.4684 37.9528 14.1517 37.753 13.952L35.2391 11.4384C35.0386 11.2379 34.7235 11.2154 34.4971 11.3855L31.7686 13.4293C30.5368 12.6532 29.2118 12.1039 27.8187 11.7921L27.3386 8.41699C27.2986 8.13697 27.0589 7.92871 26.7763 7.92871H23.2156C22.933 7.92871 22.6932 8.13697 22.6533 8.41699L22.1732 11.7921C20.7823 12.1035 19.458 12.6517 18.2277 13.4263L15.5044 11.3855C15.2773 11.2165 14.9629 11.2387 14.7624 11.4377L12.2403 13.9512C12.0398 14.151 12.0169 14.468 12.1871 14.6947L14.2349 17.4258C13.4662 18.6387 12.9158 19.9626 12.5947 21.372L9.2263 21.8518C8.94591 21.8917 8.73802 22.1314 8.73802 22.4144V25.9755C8.73802 26.2585 8.94591 26.4982 9.2263 26.5381L12.6006 27.0183C12.9158 28.4254 13.464 29.7471 14.2341 30.9571L12.1871 33.687C12.0169 33.9134 12.0398 34.2301 12.2396 34.4298L14.7616 36.9519C14.8719 37.0621 15.0169 37.1183 15.1634 37.1183C15.2825 37.1183 15.4031 37.081 15.5044 37.0047L18.554 34.7172C18.8048 34.5289 18.8558 34.1727 18.6671 33.9215C18.4792 33.6715 18.1234 33.6197 17.8718 33.808L15.2166 35.8L13.3915 33.9748L15.3831 31.3189C15.5296 31.1239 15.5355 30.858 15.3979 30.6571C14.5205 29.3739 13.9271 27.9438 13.6342 26.4057C13.589 26.1671 13.3967 25.9837 13.1562 25.9492L9.87439 25.4824V22.9075L13.1481 22.441C13.3878 22.4066 13.5794 22.2246 13.626 21.9871C13.9264 20.4461 14.5234 19.0116 15.3986 17.7236C15.5355 17.5227 15.5288 17.2575 15.3831 17.0629L13.3922 14.4077L15.2159 12.5896L17.8637 14.5738C18.0583 14.7184 18.3217 14.7254 18.5221 14.5904C19.8353 13.7071 21.2691 13.113 22.785 12.8256C23.0239 12.7805 23.2074 12.5881 23.2415 12.3473L23.7083 9.06507H26.2836L26.7504 12.3473C26.7845 12.5881 26.9679 12.7805 27.2069 12.8256C28.7228 13.113 30.1566 13.7071 31.4697 14.5904C31.6658 14.7228 31.9484 14.7155 32.1356 14.5738L34.7841 12.5903L36.6011 14.4073L34.6169 17.0548C34.4719 17.249 34.4653 17.5138 34.6021 17.7147C36.7132 20.825 35.9373 22.3098 36.8519 22.441L40.1264 22.9075V25.4824L36.8438 25.9492C36.6033 25.9837 36.411 26.1671 36.3651 26.4061C36.0759 27.9334 35.4825 29.3672 34.6014 30.6678C34.4653 30.8683 34.4719 31.1332 34.6169 31.327L36.6019 33.9752L34.7834 35.7996L32.1282 33.808C31.8766 33.619 31.5193 33.6711 31.3329 33.9215C31.1442 34.1727 31.1953 34.5289 31.4461 34.7172L34.4963 37.0047C34.7242 37.1745 35.0401 37.1516 35.2399 36.9511L37.7538 34.4291C37.9528 34.2293 37.975 33.9134 37.8063 33.6874L35.7651 30.9641C36.5382 29.7423 37.0864 28.418 37.3994 27.0183L40.7745 26.5381Z" fill="#F45500"/>
<path d="M24.1396 27.9597V33.2276C24.1396 33.495 24.326 33.7262 24.5872 33.7828C24.6279 33.7917 24.6678 33.7958 24.7078 33.7958C24.9268 33.7958 25.1309 33.6689 25.2249 33.4629L29.0461 25.0648C29.126 24.8891 29.1112 24.6845 29.0069 24.5221C28.9018 24.3594 28.722 24.2614 28.5289 24.2614H26.9243L27.8357 19.5295C27.9034 19.1752 27.631 18.8536 27.2779 18.8536H23.3606C23.0639 18.8536 22.8175 19.0815 22.7939 19.3771L22.1643 27.3468C22.1524 27.5047 22.2064 27.6608 22.3137 27.777C22.421 27.8935 22.5726 27.9597 22.731 27.9597H24.1396ZM23.8858 19.99H26.5899L25.6784 24.7219C25.6466 24.8884 25.6902 25.0607 25.7983 25.1913C25.9063 25.3219 26.0668 25.3977 26.2362 25.3977H27.6463L25.2759 30.6068V27.3915C25.2759 27.0778 25.0214 26.8233 24.7078 26.8233H23.3458L23.8858 19.99Z" fill="#F45500"/>
<path d="M25.0126 42.4221C26.9909 42.4221 28.6 40.813 28.6 38.827V36.5327L28.6014 36.5287C28.9928 34.3259 29.9694 32.3791 31.4239 30.8976C36.9974 25.2206 32.9794 15.5796 25 15.5796C17.0749 15.5796 13.0022 25.1716 18.551 30.8709C20.021 32.3805 21.005 34.337 21.3978 36.5294C21.4028 36.5569 21.4172 36.5797 21.4259 36.6055V38.827L21.4268 38.831L21.4259 38.8351C21.4259 40.813 23.035 42.4221 25.0126 42.4221ZM27.4636 38.2588H22.5623V36.9974H27.4636V38.2588ZM25.0126 41.2857C23.8562 41.2857 22.8841 40.4801 22.6281 39.3951H27.3992C27.1447 40.4775 26.1711 41.2857 25.0126 41.2857ZM19.3648 30.0778C14.5167 25.0993 18.0716 16.716 25 16.716C31.9698 16.716 35.4876 25.1369 30.613 30.1015C29.1016 31.6403 28.0569 33.6234 27.5746 35.861H22.4239C21.9394 33.6334 20.8881 31.6422 19.3648 30.0778Z" fill="#F45500"/>
</svg>
