<svg width="33" height="33" viewBox="0 0 33 33" fill="none" xmlns="http://www.w3.org/2000/svg">
<path d="M32.5417 9.20835C32.5409 8.93905 32.4655 8.67522 32.3239 8.44613C32.1823 8.21704 31.9801 8.03162 31.7396 7.91044L17.1563 0.618769C16.9527 0.516198 16.7279 0.462769 16.5 0.462769C16.2721 0.462769 16.0473 0.516198 15.8438 0.618769L1.26043 7.91044C1.02155 8.03282 0.821085 8.21875 0.681099 8.44775C0.541113 8.67676 0.467041 8.93995 0.467041 9.20835C0.467041 9.47675 0.541113 9.73995 0.681099 9.96895C0.821085 10.198 1.02155 10.3839 1.26043 10.5063L5.94168 12.8542L1.26043 15.2021C1.02155 15.3245 0.821085 15.5104 0.681099 15.7394C0.541113 15.9684 0.467041 16.2316 0.467041 16.5C0.467041 16.7684 0.541113 17.0316 0.681099 17.2606C0.821085 17.4896 1.02155 17.6756 1.26043 17.7979L5.94168 20.1459L1.26043 22.4938C1.02155 22.6161 0.821085 22.8021 0.681099 23.0311C0.541113 23.2601 0.467041 23.5233 0.467041 23.7917C0.467041 24.0601 0.541113 24.3233 0.681099 24.5523C0.821085 24.7813 1.02155 24.9672 1.26043 25.0896L15.8438 32.3813C16.0473 32.4838 16.2721 32.5373 16.5 32.5373C16.7279 32.5373 16.9527 32.4838 17.1563 32.3813L31.7396 25.0896C31.9785 24.9672 32.1789 24.7813 32.3189 24.5523C32.4589 24.3233 32.533 24.0601 32.533 23.7917C32.533 23.5233 32.4589 23.2601 32.3189 23.0311C32.1789 22.8021 31.9785 22.6161 31.7396 22.4938L27.0583 20.1459L31.7396 17.7979C31.9785 17.6756 32.1789 17.4896 32.3189 17.2606C32.4589 17.0316 32.533 16.7684 32.533 16.5C32.533 16.2316 32.4589 15.9684 32.3189 15.7394C32.1789 15.5104 31.9785 15.3245 31.7396 15.2021L27.0583 12.8542L31.7396 10.5063C31.9801 10.3851 32.1823 10.1997 32.3239 9.97057C32.4655 9.74148 32.5409 9.47766 32.5417 9.20835ZM27.8167 23.7917L16.5 29.45L5.18335 23.7917L9.20835 21.7792L15.8438 25.0896C16.0473 25.1922 16.2721 25.2456 16.5 25.2456C16.7279 25.2456 16.9527 25.1922 17.1563 25.0896L23.7917 21.7792L27.8167 23.7917ZM27.8167 16.5L16.5 22.1584L5.18335 16.5L9.20835 14.4875L15.8438 17.7979C16.0473 17.9005 16.2721 17.9539 16.5 17.9539C16.7279 17.9539 16.9527 17.9005 17.1563 17.7979L23.7917 14.4875L27.8167 16.5ZM16.5 14.8667L5.18335 9.20835L16.5 3.55002L27.8167 9.20835L16.5 14.8667Z" fill="#F45500"/>
</svg>
